<mxfile host="Electron" agent="Mozilla/5.0 (X11; Linux x86_64) AppleWebKit/537.36 (KHTML, like Gecko) draw.io/25.0.2 Chrome/128.0.6613.186 Electron/32.2.5 Safari/537.36" version="25.0.2" pages="5">
  <diagram name="Second approach detailing" id="Mnznvx_B0bldqAJLPdro">
    <mxGraphModel dx="2074" dy="883" grid="0" gridSize="10" guides="1" tooltips="1" connect="1" arrows="1" fold="1" page="1" pageScale="1" pageWidth="1169" pageHeight="827" math="0" shadow="0">
      <root>
        <mxCell id="b9gLhvquDyHjyEqhYBXd-0" />
        <mxCell id="b9gLhvquDyHjyEqhYBXd-1" parent="b9gLhvquDyHjyEqhYBXd-0" />
        <mxCell id="4T0gRlMGR4peqcuVQ0AD-8" value="" style="group" parent="b9gLhvquDyHjyEqhYBXd-1" vertex="1" connectable="0">
          <mxGeometry x="62" y="211" width="506" height="406" as="geometry" />
        </mxCell>
        <mxCell id="b9gLhvquDyHjyEqhYBXd-2" value="" style="rounded=0;whiteSpace=wrap;html=1;fillColor=none;strokeWidth=3;dashed=1;strokeColor=#FF962E;movable=1;resizable=1;rotatable=1;deletable=1;editable=1;locked=0;connectable=1;fontColor=none;noLabel=1;labelBackgroundColor=none;glass=0;" parent="4T0gRlMGR4peqcuVQ0AD-8" vertex="1">
          <mxGeometry width="506" height="406" as="geometry" />
        </mxCell>
        <mxCell id="b9gLhvquDyHjyEqhYBXd-18" value="Autoware - ROS2 Humble" style="text;html=1;align=center;verticalAlign=middle;resizable=0;points=[];autosize=1;strokeColor=none;fillColor=none;fontColor=#C27223;fontStyle=1;fontSize=14;labelBackgroundColor=none;" parent="4T0gRlMGR4peqcuVQ0AD-8" vertex="1">
          <mxGeometry x="168.51845342706503" width="190" height="30" as="geometry" />
        </mxCell>
        <mxCell id="urDg5iGiM5B9tMt-7c2C-0" value="Hosted on vilma-tower" style="whiteSpace=wrap;html=1;fillColor=#e1d5e7;strokeColor=#9673a6;gradientDirection=east;fontStyle=1;labelBackgroundColor=none;fontSize=10;verticalAlign=middle;" parent="b9gLhvquDyHjyEqhYBXd-1" vertex="1">
          <mxGeometry x="323.13" y="263" width="68.75" height="40" as="geometry" />
        </mxCell>
        <mxCell id="b9gLhvquDyHjyEqhYBXd-6" value="Autoware&lt;div&gt;Core/Universe&lt;/div&gt;" style="rounded=1;whiteSpace=wrap;html=1;fillColor=#e1d5e7;strokeColor=#9673a6;fontStyle=1;labelBackgroundColor=none;strokeWidth=1;arcSize=6;" parent="b9gLhvquDyHjyEqhYBXd-1" vertex="1">
          <mxGeometry x="221" y="298" width="273" height="174" as="geometry" />
        </mxCell>
        <mxCell id="b9gLhvquDyHjyEqhYBXd-14" value="VILMA" style="shape=process;whiteSpace=wrap;html=1;backgroundOutline=1;fillColor=#cce5ff;strokeColor=#36393d;fontStyle=1;labelBackgroundColor=none;" parent="b9gLhvquDyHjyEqhYBXd-1" vertex="1">
          <mxGeometry x="987" y="355" width="120" height="60" as="geometry" />
        </mxCell>
        <mxCell id="b9gLhvquDyHjyEqhYBXd-16" value="ZED" style="ellipse;whiteSpace=wrap;html=1;fillColor=#f5f5f5;fontColor=#333333;strokeColor=#666666;labelBackgroundColor=none;flipH=0;flipV=0;" parent="b9gLhvquDyHjyEqhYBXd-1" vertex="1">
          <mxGeometry x="95" y="297" width="80" height="50" as="geometry" />
        </mxCell>
        <mxCell id="4T0gRlMGR4peqcuVQ0AD-2" style="edgeStyle=orthogonalEdgeStyle;shape=connector;curved=1;rounded=0;orthogonalLoop=1;jettySize=auto;html=1;exitX=1;exitY=0.5;exitDx=0;exitDy=0;entryX=0;entryY=0.5;entryDx=0;entryDy=0;strokeColor=default;align=center;verticalAlign=middle;fontFamily=Helvetica;fontSize=11;fontColor=default;labelBackgroundColor=default;endArrow=classic;" parent="b9gLhvquDyHjyEqhYBXd-1" source="b9gLhvquDyHjyEqhYBXd-17" target="8FrFSxbeq5zoM1fIcHVO-0" edge="1">
          <mxGeometry relative="1" as="geometry" />
        </mxCell>
        <mxCell id="b9gLhvquDyHjyEqhYBXd-17" value="Velodyne" style="ellipse;whiteSpace=wrap;html=1;fillColor=#f5f5f5;fontColor=#333333;strokeColor=#666666;labelBackgroundColor=none;flipH=0;flipV=0;" parent="b9gLhvquDyHjyEqhYBXd-1" vertex="1">
          <mxGeometry x="95" y="360" width="80" height="50" as="geometry" />
        </mxCell>
        <mxCell id="4T0gRlMGR4peqcuVQ0AD-4" style="edgeStyle=orthogonalEdgeStyle;shape=connector;curved=1;rounded=0;orthogonalLoop=1;jettySize=auto;html=1;exitX=1;exitY=0.5;exitDx=0;exitDy=0;entryX=1;entryY=0.75;entryDx=0;entryDy=0;strokeColor=default;align=center;verticalAlign=middle;fontFamily=Helvetica;fontSize=11;fontColor=default;labelBackgroundColor=default;endArrow=classic;" parent="b9gLhvquDyHjyEqhYBXd-1" source="b9gLhvquDyHjyEqhYBXd-21" target="4T0gRlMGR4peqcuVQ0AD-0" edge="1">
          <mxGeometry relative="1" as="geometry" />
        </mxCell>
        <mxCell id="b9gLhvquDyHjyEqhYBXd-21" value="GPS" style="ellipse;whiteSpace=wrap;html=1;fillColor=#f5f5f5;fontColor=#333333;strokeColor=#666666;labelBackgroundColor=none;flipH=0;flipV=0;" parent="b9gLhvquDyHjyEqhYBXd-1" vertex="1">
          <mxGeometry x="95" y="488" width="80" height="48.5" as="geometry" />
        </mxCell>
        <mxCell id="b9gLhvquDyHjyEqhYBXd-24" value="&lt;h1 style=&quot;margin-top: 0px;&quot;&gt;VILMA02 second approach&lt;/h1&gt;&lt;p&gt;Once the VILMA01 low-level was validated using ROS1-Bridge, a novel approach was proposed to achieve a full ROS2 system, with a cleaner architecture and lower latency. To ensure this objective, a vehicle interface using the MAUDP protocol was proposed.&lt;/p&gt;" style="text;html=1;whiteSpace=wrap;overflow=hidden;rounded=0;" parent="b9gLhvquDyHjyEqhYBXd-1" vertex="1">
          <mxGeometry x="16" y="19" width="390" height="120" as="geometry" />
        </mxCell>
        <mxCell id="b9gLhvquDyHjyEqhYBXd-26" value="IMU" style="ellipse;whiteSpace=wrap;html=1;fillColor=#f5f5f5;fontColor=#333333;strokeColor=#666666;labelBackgroundColor=none;flipH=0;flipV=0;" parent="b9gLhvquDyHjyEqhYBXd-1" vertex="1">
          <mxGeometry x="95" y="550" width="80" height="50" as="geometry" />
        </mxCell>
        <mxCell id="4T0gRlMGR4peqcuVQ0AD-6" style="edgeStyle=orthogonalEdgeStyle;shape=connector;curved=0;rounded=1;orthogonalLoop=1;jettySize=auto;html=1;entryX=0;entryY=0.5;entryDx=0;entryDy=0;strokeColor=default;align=center;verticalAlign=middle;fontFamily=Helvetica;fontSize=11;fontColor=default;labelBackgroundColor=default;endArrow=classic;strokeWidth=2;startArrow=classic;startFill=1;" parent="b9gLhvquDyHjyEqhYBXd-1" source="b9gLhvquDyHjyEqhYBXd-29" target="G4KwwPktfFCtnkRB0qQ7-1" edge="1">
          <mxGeometry relative="1" as="geometry" />
        </mxCell>
        <mxCell id="4T0gRlMGR4peqcuVQ0AD-7" value="UDP" style="edgeLabel;align=center;verticalAlign=middle;resizable=0;points=[];fontFamily=Helvetica;fontSize=11;fontColor=default;labelBackgroundColor=none;fontStyle=1;labelPosition=center;verticalLabelPosition=middle;html=1;" parent="4T0gRlMGR4peqcuVQ0AD-6" vertex="1" connectable="0">
          <mxGeometry x="0.1254" y="-2" relative="1" as="geometry">
            <mxPoint x="-21" y="-9" as="offset" />
          </mxGeometry>
        </mxCell>
        <mxCell id="b9gLhvquDyHjyEqhYBXd-29" value="Vehicle Interface" style="rounded=1;whiteSpace=wrap;html=1;fillColor=#b1ddf0;strokeColor=#10739e;fontStyle=1;strokeWidth=1;perimeterSpacing=0;verticalAlign=middle;rotation=-90;" parent="b9gLhvquDyHjyEqhYBXd-1" vertex="1">
          <mxGeometry x="414" y="371.5" width="120" height="27" as="geometry" />
        </mxCell>
        <mxCell id="b9gLhvquDyHjyEqhYBXd-30" style="edgeStyle=orthogonalEdgeStyle;rounded=0;orthogonalLoop=1;jettySize=auto;html=1;exitX=0.5;exitY=1;exitDx=0;exitDy=0;" parent="b9gLhvquDyHjyEqhYBXd-1" source="b9gLhvquDyHjyEqhYBXd-21" target="b9gLhvquDyHjyEqhYBXd-21" edge="1">
          <mxGeometry relative="1" as="geometry" />
        </mxCell>
        <mxCell id="b9gLhvquDyHjyEqhYBXd-32" value="&lt;div&gt;Using&amp;nbsp;&lt;i&gt;MAUDP&lt;/i&gt;&lt;/div&gt;&lt;ul&gt;&lt;li&gt;State information&lt;/li&gt;&lt;li&gt;Sensors informations&lt;/li&gt;&lt;li&gt;Joystick command&lt;/li&gt;&lt;/ul&gt;" style="text;html=1;align=left;verticalAlign=bottom;resizable=0;points=[];autosize=1;strokeColor=#10739e;fillColor=#b1ddf0;fontFamily=Helvetica;fontSize=11;labelBackgroundColor=none;perimeterSpacing=0;fontStyle=1;rounded=1;glass=0;shadow=0;dashed=1;strokeWidth=1;labelBorderColor=none;textShadow=0;spacingTop=0;spacingLeft=0;" parent="b9gLhvquDyHjyEqhYBXd-1" vertex="1">
          <mxGeometry x="393.5" y="509" width="161" height="85" as="geometry" />
        </mxCell>
        <mxCell id="b9gLhvquDyHjyEqhYBXd-33" style="edgeStyle=orthogonalEdgeStyle;rounded=0;orthogonalLoop=1;jettySize=auto;html=1;endArrow=baseDash;startFill=0;startArrow=baseDash;dashed=1;endFill=0;exitX=0;exitY=0.5;exitDx=0;exitDy=0;strokeWidth=2;strokeColor=#10739e;fillColor=#b1ddf0;entryX=0.498;entryY=0.002;entryDx=0;entryDy=0;entryPerimeter=0;" parent="b9gLhvquDyHjyEqhYBXd-1" source="b9gLhvquDyHjyEqhYBXd-29" target="b9gLhvquDyHjyEqhYBXd-32" edge="1">
          <mxGeometry relative="1" as="geometry">
            <mxPoint x="402" y="503" as="sourcePoint" />
            <mxPoint x="402" y="522" as="targetPoint" />
            <Array as="points">
              <mxPoint x="474" y="445" />
              <mxPoint x="474" y="509" />
            </Array>
          </mxGeometry>
        </mxCell>
        <mxCell id="b9gLhvquDyHjyEqhYBXd-34" value="DBW" style="edgeStyle=orthogonalEdgeStyle;rounded=0;orthogonalLoop=1;jettySize=auto;html=1;fontStyle=2;exitX=1;exitY=0.25;exitDx=0;exitDy=0;entryX=0;entryY=0.25;entryDx=0;entryDy=0;labelBackgroundColor=none;" parent="b9gLhvquDyHjyEqhYBXd-1" source="G4KwwPktfFCtnkRB0qQ7-1" target="b9gLhvquDyHjyEqhYBXd-14" edge="1">
          <mxGeometry x="-0.0149" y="8" relative="1" as="geometry">
            <mxPoint x="920" y="370" as="sourcePoint" />
            <mxPoint x="982" y="370" as="targetPoint" />
            <Array as="points" />
            <mxPoint as="offset" />
          </mxGeometry>
        </mxCell>
        <mxCell id="b9gLhvquDyHjyEqhYBXd-35" value="&lt;i&gt;Sensoring&lt;/i&gt;" style="edgeStyle=orthogonalEdgeStyle;rounded=0;orthogonalLoop=1;jettySize=auto;html=1;exitX=0;exitY=0.75;exitDx=0;exitDy=0;entryX=1;entryY=0.75;entryDx=0;entryDy=0;labelBackgroundColor=none;" parent="b9gLhvquDyHjyEqhYBXd-1" target="G4KwwPktfFCtnkRB0qQ7-1" edge="1">
          <mxGeometry x="0.0149" y="-9" relative="1" as="geometry">
            <Array as="points" />
            <mxPoint as="offset" />
            <mxPoint x="986.9999999999998" y="400" as="sourcePoint" />
            <mxPoint x="924" y="400" as="targetPoint" />
          </mxGeometry>
        </mxCell>
        <mxCell id="4T0gRlMGR4peqcuVQ0AD-3" style="edgeStyle=orthogonalEdgeStyle;shape=connector;curved=1;rounded=0;orthogonalLoop=1;jettySize=auto;html=1;exitX=1;exitY=0.5;exitDx=0;exitDy=0;entryX=0;entryY=0.75;entryDx=0;entryDy=0;strokeColor=default;align=center;verticalAlign=middle;fontFamily=Helvetica;fontSize=11;fontColor=default;labelBackgroundColor=default;endArrow=classic;" parent="b9gLhvquDyHjyEqhYBXd-1" source="b9gLhvquDyHjyEqhYBXd-36" target="8FrFSxbeq5zoM1fIcHVO-0" edge="1">
          <mxGeometry relative="1" as="geometry" />
        </mxCell>
        <mxCell id="b9gLhvquDyHjyEqhYBXd-36" value="Point Gray" style="ellipse;whiteSpace=wrap;html=1;fillColor=#f5f5f5;fontColor=#333333;strokeColor=#666666;labelBackgroundColor=none;flipH=0;flipV=0;" parent="b9gLhvquDyHjyEqhYBXd-1" vertex="1">
          <mxGeometry x="95" y="424" width="80" height="48.5" as="geometry" />
        </mxCell>
        <mxCell id="G4KwwPktfFCtnkRB0qQ7-0" value="&lt;span style=&quot;color: rgb(0, 0, 0); font-family: Helvetica; font-style: normal; font-variant-ligatures: normal; font-variant-caps: normal; font-weight: 700; letter-spacing: normal; orphans: 2; text-indent: 0px; text-transform: none; widows: 2; word-spacing: 0px; -webkit-text-stroke-width: 0px; white-space: normal; text-decoration-thickness: initial; text-decoration-style: initial; text-decoration-color: initial; float: none; display: inline !important;&quot;&gt;Hosted on MA&#39;s Real Time System&lt;/span&gt;" style="text;whiteSpace=wrap;html=1;fillColor=#f8cecc;strokeColor=#b85450;labelBackgroundColor=none;verticalAlign=middle;align=center;fontSize=10;" parent="b9gLhvquDyHjyEqhYBXd-1" vertex="1">
          <mxGeometry x="811.5" y="320" width="91" height="40" as="geometry" />
        </mxCell>
        <mxCell id="G4KwwPktfFCtnkRB0qQ7-1" value="vilma_ma&amp;nbsp;&lt;div&gt;&lt;span style=&quot;background-color: initial;&quot;&gt;application&lt;/span&gt;&lt;/div&gt;" style="rounded=1;whiteSpace=wrap;html=1;fillColor=#fad9d5;strokeColor=#ae4132;fontStyle=1;labelBackgroundColor=none;" parent="b9gLhvquDyHjyEqhYBXd-1" vertex="1">
          <mxGeometry x="797" y="355" width="120" height="60" as="geometry" />
        </mxCell>
        <mxCell id="8FrFSxbeq5zoM1fIcHVO-0" value="Sensing" style="rounded=1;whiteSpace=wrap;html=1;fillColor=#d5e8d4;strokeColor=#82b366;fontStyle=1;labelBackgroundColor=none;horizontal=0;fontSize=10;rotation=0;arcSize=33;" parent="b9gLhvquDyHjyEqhYBXd-1" vertex="1">
          <mxGeometry x="227" y="331.5" width="27" height="107" as="geometry" />
        </mxCell>
        <mxCell id="4T0gRlMGR4peqcuVQ0AD-0" value="Localization" style="rounded=1;whiteSpace=wrap;html=1;fillColor=#fff2cc;strokeColor=#d6b656;fontStyle=1;labelBackgroundColor=none;horizontal=0;fontSize=10;rotation=90;arcSize=36;" parent="b9gLhvquDyHjyEqhYBXd-1" vertex="1">
          <mxGeometry x="344.01" y="386" width="27" height="135.5" as="geometry" />
        </mxCell>
        <mxCell id="4T0gRlMGR4peqcuVQ0AD-1" style="edgeStyle=orthogonalEdgeStyle;rounded=0;orthogonalLoop=1;jettySize=auto;html=1;entryX=0.005;entryY=0.169;entryDx=0;entryDy=0;entryPerimeter=0;curved=1;" parent="b9gLhvquDyHjyEqhYBXd-1" source="b9gLhvquDyHjyEqhYBXd-16" target="8FrFSxbeq5zoM1fIcHVO-0" edge="1">
          <mxGeometry relative="1" as="geometry" />
        </mxCell>
        <mxCell id="4T0gRlMGR4peqcuVQ0AD-5" style="edgeStyle=orthogonalEdgeStyle;shape=connector;curved=1;rounded=0;orthogonalLoop=1;jettySize=auto;html=1;exitX=1;exitY=0.5;exitDx=0;exitDy=0;entryX=1;entryY=0.25;entryDx=0;entryDy=0;strokeColor=default;align=center;verticalAlign=middle;fontFamily=Helvetica;fontSize=11;fontColor=default;labelBackgroundColor=default;endArrow=classic;" parent="b9gLhvquDyHjyEqhYBXd-1" source="b9gLhvquDyHjyEqhYBXd-26" target="4T0gRlMGR4peqcuVQ0AD-0" edge="1">
          <mxGeometry relative="1" as="geometry" />
        </mxCell>
      </root>
    </mxGraphModel>
  </diagram>
  <diagram id="DKBxZjmYgxRv83vEMFTn" name="Vehicle Interface">
    <mxGraphModel grid="0" page="1" gridSize="10" guides="1" tooltips="1" connect="1" arrows="1" fold="1" pageScale="1" pageWidth="1169" pageHeight="827" background="none" math="0" shadow="0">
      <root>
        <mxCell id="0" />
        <mxCell id="1" parent="0" />
        <mxCell id="0fOkP6vydw7_xEX31lQw-1" style="edgeStyle=orthogonalEdgeStyle;rounded=0;orthogonalLoop=1;jettySize=auto;html=1;shape=flexArrow;startArrow=block;strokeWidth=2;endSize=6.5653631284916205;targetPerimeterSpacing=0;sourcePerimeterSpacing=0;width=21.675977653631286;startSize=5.053691275167785;fillColor=#ffe6cc;strokeColor=#d79b00;fontSize=12;" edge="1" parent="1" source="0fOkP6vydw7_xEX31lQw-3">
          <mxGeometry relative="1" as="geometry">
            <mxPoint x="1754" y="1461" as="targetPoint" />
          </mxGeometry>
        </mxCell>
        <mxCell id="0fOkP6vydw7_xEX31lQw-2" value="Vehicle" style="edgeLabel;html=1;align=center;verticalAlign=middle;resizable=0;points=[];rotation=-90;fontStyle=1;fontSize=12;labelBackgroundColor=none;" vertex="1" connectable="0" parent="0fOkP6vydw7_xEX31lQw-1">
          <mxGeometry x="0.0185" relative="1" as="geometry">
            <mxPoint x="-1" y="-1" as="offset" />
          </mxGeometry>
        </mxCell>
        <mxCell id="0fOkP6vydw7_xEX31lQw-3" value="&lt;div&gt;&lt;span&gt;&lt;font style=&quot;color: rgb(0, 0, 0);&quot;&gt;&lt;b&gt;Vehicle Interface&lt;/b&gt;&lt;/font&gt;&lt;/span&gt;&lt;/div&gt;" style="rounded=1;whiteSpace=wrap;html=1;strokeColor=#10739e;fillColor=#b1ddf0;fontSize=14;strokeWidth=2;arcSize=9;" vertex="1" parent="1">
          <mxGeometry x="1639" y="1021" width="230" height="320" as="geometry" />
        </mxCell>
        <mxCell id="0fOkP6vydw7_xEX31lQw-4" style="edgeStyle=orthogonalEdgeStyle;rounded=0;orthogonalLoop=1;jettySize=auto;html=1;entryX=1;entryY=0.25;entryDx=0;entryDy=0;strokeWidth=2;fontSize=12;" edge="1" parent="1">
          <mxGeometry relative="1" as="geometry">
            <mxPoint x="2159" y="1069.66" as="sourcePoint" />
            <mxPoint x="1869" y="1069.66" as="targetPoint" />
          </mxGeometry>
        </mxCell>
        <mxCell id="0fOkP6vydw7_xEX31lQw-5" value="&lt;span style=&quot;color: rgba(0, 0, 0, 0.87); font-family: Roboto, -apple-system, BlinkMacSystemFont, Helvetica, Arial, sans-serif; text-align: left; text-wrap: wrap;&quot;&gt;/control/command/control_cmd&lt;/span&gt;" style="edgeLabel;html=1;align=center;verticalAlign=middle;resizable=0;points=[];labelBackgroundColor=none;fontStyle=3;fontSize=12;" vertex="1" connectable="0" parent="0fOkP6vydw7_xEX31lQw-4">
          <mxGeometry x="-0.1515" y="3" relative="1" as="geometry">
            <mxPoint x="-7" y="-13" as="offset" />
          </mxGeometry>
        </mxCell>
        <mxCell id="0fOkP6vydw7_xEX31lQw-6" style="edgeStyle=orthogonalEdgeStyle;rounded=0;orthogonalLoop=1;jettySize=auto;html=1;entryX=1;entryY=0.25;entryDx=0;entryDy=0;strokeWidth=2;fontColor=#666666;dashed=1;dashPattern=1 1;strokeColor=#666666;fontSize=12;" edge="1" parent="1">
          <mxGeometry relative="1" as="geometry">
            <mxPoint x="2159" y="1191.66" as="sourcePoint" />
            <mxPoint x="1869" y="1191.66" as="targetPoint" />
          </mxGeometry>
        </mxCell>
        <mxCell id="0fOkP6vydw7_xEX31lQw-7" style="edgeStyle=orthogonalEdgeStyle;rounded=0;orthogonalLoop=1;jettySize=auto;html=1;entryX=1;entryY=0.25;entryDx=0;entryDy=0;strokeWidth=2;fontColor=#666666;dashed=1;dashPattern=1 1;strokeColor=#666666;fontSize=12;" edge="1" parent="1">
          <mxGeometry relative="1" as="geometry">
            <mxPoint x="2159" y="1231.66" as="sourcePoint" />
            <mxPoint x="1869" y="1231.66" as="targetPoint" />
          </mxGeometry>
        </mxCell>
        <mxCell id="0fOkP6vydw7_xEX31lQw-8" style="edgeStyle=orthogonalEdgeStyle;rounded=0;orthogonalLoop=1;jettySize=auto;html=1;entryX=1;entryY=0.25;entryDx=0;entryDy=0;strokeWidth=2;fontColor=#666666;dashed=1;dashPattern=1 1;strokeColor=#666666;fontSize=12;" edge="1" parent="1">
          <mxGeometry relative="1" as="geometry">
            <mxPoint x="2159" y="1271.66" as="sourcePoint" />
            <mxPoint x="1869" y="1271.66" as="targetPoint" />
          </mxGeometry>
        </mxCell>
        <mxCell id="0fOkP6vydw7_xEX31lQw-9" style="edgeStyle=orthogonalEdgeStyle;rounded=0;orthogonalLoop=1;jettySize=auto;html=1;entryX=1;entryY=0.25;entryDx=0;entryDy=0;strokeWidth=2;fontColor=#666666;dashed=1;dashPattern=1 1;strokeColor=#666666;fontSize=12;" edge="1" parent="1">
          <mxGeometry relative="1" as="geometry">
            <mxPoint x="2159" y="1311.66" as="sourcePoint" />
            <mxPoint x="1869" y="1311.66" as="targetPoint" />
          </mxGeometry>
        </mxCell>
        <mxCell id="0fOkP6vydw7_xEX31lQw-10" style="edgeStyle=orthogonalEdgeStyle;rounded=0;orthogonalLoop=1;jettySize=auto;html=1;entryX=1;entryY=0.25;entryDx=0;entryDy=0;strokeWidth=2;fontColor=#666666;strokeColor=#000000;fontSize=12;" edge="1" parent="1">
          <mxGeometry relative="1" as="geometry">
            <mxPoint x="2159" y="1150.66" as="sourcePoint" />
            <mxPoint x="1869" y="1150.26" as="targetPoint" />
          </mxGeometry>
        </mxCell>
        <mxCell id="0fOkP6vydw7_xEX31lQw-11" value="&lt;span style=&quot;font-family: Roboto, -apple-system, BlinkMacSystemFont, Helvetica, Arial, sans-serif; text-align: left; text-wrap: wrap;&quot;&gt;/&lt;/span&gt;&lt;font face=&quot;Roboto, -apple-system, BlinkMacSystemFont, Helvetica, Arial, sans-serif&quot;&gt;&lt;span style=&quot;text-wrap: wrap;&quot;&gt;control/command/gear_cmd&lt;/span&gt;&lt;/font&gt;" style="edgeLabel;html=1;align=center;verticalAlign=middle;resizable=0;points=[];labelBackgroundColor=none;fontStyle=3;fontSize=12;fontColor=#000000;" vertex="1" connectable="0" parent="1">
          <mxGeometry x="2029.0013793103453" y="1140.66" as="geometry" />
        </mxCell>
        <mxCell id="0fOkP6vydw7_xEX31lQw-12" value="&lt;span style=&quot;font-family: Roboto, -apple-system, BlinkMacSystemFont, Helvetica, Arial, sans-serif; text-align: left; text-wrap: wrap;&quot;&gt;/&lt;/span&gt;&lt;font face=&quot;Roboto, -apple-system, BlinkMacSystemFont, Helvetica, Arial, sans-serif&quot;&gt;&lt;span style=&quot;text-wrap: wrap;&quot;&gt;control/command/emergency_cmd&lt;/span&gt;&lt;/font&gt;" style="edgeLabel;html=1;align=center;verticalAlign=middle;resizable=0;points=[];labelBackgroundColor=none;fontStyle=3;fontSize=12;fontColor=#666666;" vertex="1" connectable="0" parent="1">
          <mxGeometry x="2029.0013793103453" y="1181.66" as="geometry" />
        </mxCell>
        <mxCell id="0fOkP6vydw7_xEX31lQw-13" value="&lt;span style=&quot;font-family: Roboto, -apple-system, BlinkMacSystemFont, Helvetica, Arial, sans-serif; text-align: left; text-wrap: wrap;&quot;&gt;/&lt;/span&gt;&lt;font face=&quot;Roboto, -apple-system, BlinkMacSystemFont, Helvetica, Arial, sans-serif&quot;&gt;&lt;span style=&quot;text-wrap: wrap;&quot;&gt;control/command/turn_indicators_cmd&lt;/span&gt;&lt;/font&gt;" style="edgeLabel;html=1;align=center;verticalAlign=middle;resizable=0;points=[];labelBackgroundColor=none;fontStyle=3;fontSize=12;fontColor=#666666;" vertex="1" connectable="0" parent="1">
          <mxGeometry x="2029.0013793103453" y="1221.66" as="geometry" />
        </mxCell>
        <mxCell id="0fOkP6vydw7_xEX31lQw-14" value="&lt;span style=&quot;font-family: Roboto, -apple-system, BlinkMacSystemFont, Helvetica, Arial, sans-serif; text-align: left; text-wrap: wrap;&quot;&gt;/&lt;/span&gt;&lt;font face=&quot;Roboto, -apple-system, BlinkMacSystemFont, Helvetica, Arial, sans-serif&quot;&gt;&lt;span style=&quot;text-wrap: wrap;&quot;&gt;control/command/hazard_lights_cmd&lt;/span&gt;&lt;/font&gt;" style="edgeLabel;html=1;align=center;verticalAlign=middle;resizable=0;points=[];labelBackgroundColor=none;fontStyle=3;fontSize=12;fontColor=#666666;" vertex="1" connectable="0" parent="1">
          <mxGeometry x="2029.0013793103453" y="1261.66" as="geometry" />
        </mxCell>
        <mxCell id="0fOkP6vydw7_xEX31lQw-15" value="&lt;span style=&quot;font-family: Roboto, -apple-system, BlinkMacSystemFont, Helvetica, Arial, sans-serif; text-align: left; text-wrap: wrap;&quot;&gt;/&lt;/span&gt;&lt;font face=&quot;Roboto, -apple-system, BlinkMacSystemFont, Helvetica, Arial, sans-serif&quot;&gt;&lt;span style=&quot;text-wrap: wrap;&quot;&gt;control/command/actuation_cmd&lt;/span&gt;&lt;/font&gt;" style="edgeLabel;html=1;align=center;verticalAlign=middle;resizable=0;points=[];labelBackgroundColor=none;fontStyle=3;fontSize=12;fontColor=#666666;" vertex="1" connectable="0" parent="1">
          <mxGeometry x="2029.0013793103453" y="1301.66" as="geometry" />
        </mxCell>
        <mxCell id="0fOkP6vydw7_xEX31lQw-16" style="edgeStyle=orthogonalEdgeStyle;rounded=0;orthogonalLoop=1;jettySize=auto;html=1;entryX=1;entryY=0.25;entryDx=0;entryDy=0;strokeWidth=2;fontColor=#666666;strokeColor=#000000;fontSize=12;" edge="1" parent="1">
          <mxGeometry relative="1" as="geometry">
            <mxPoint x="1639" y="1201" as="sourcePoint" />
            <mxPoint x="1349" y="1201" as="targetPoint" />
          </mxGeometry>
        </mxCell>
        <mxCell id="0fOkP6vydw7_xEX31lQw-17" style="edgeStyle=orthogonalEdgeStyle;rounded=0;orthogonalLoop=1;jettySize=auto;html=1;entryX=1;entryY=0.25;entryDx=0;entryDy=0;strokeWidth=2;fontColor=#666666;dashed=1;dashPattern=1 1;strokeColor=#666666;fontSize=12;" edge="1" parent="1">
          <mxGeometry relative="1" as="geometry">
            <mxPoint x="1639" y="1241" as="sourcePoint" />
            <mxPoint x="1349" y="1241" as="targetPoint" />
          </mxGeometry>
        </mxCell>
        <mxCell id="0fOkP6vydw7_xEX31lQw-18" style="edgeStyle=orthogonalEdgeStyle;rounded=0;orthogonalLoop=1;jettySize=auto;html=1;entryX=1;entryY=0.25;entryDx=0;entryDy=0;strokeWidth=2;fontColor=#666666;dashed=1;dashPattern=1 1;strokeColor=#666666;fontSize=12;" edge="1" parent="1">
          <mxGeometry relative="1" as="geometry">
            <mxPoint x="1639" y="1281" as="sourcePoint" />
            <mxPoint x="1349" y="1281" as="targetPoint" />
          </mxGeometry>
        </mxCell>
        <mxCell id="0fOkP6vydw7_xEX31lQw-19" style="edgeStyle=orthogonalEdgeStyle;rounded=0;orthogonalLoop=1;jettySize=auto;html=1;entryX=1;entryY=0.25;entryDx=0;entryDy=0;strokeWidth=2;fontSize=12;" edge="1" parent="1">
          <mxGeometry relative="1" as="geometry">
            <mxPoint x="1639" y="1121" as="sourcePoint" />
            <mxPoint x="1349" y="1121" as="targetPoint" />
          </mxGeometry>
        </mxCell>
        <mxCell id="0fOkP6vydw7_xEX31lQw-20" style="edgeStyle=orthogonalEdgeStyle;rounded=0;orthogonalLoop=1;jettySize=auto;html=1;entryX=1;entryY=0.25;entryDx=0;entryDy=0;strokeWidth=2;fontSize=12;" edge="1" parent="1">
          <mxGeometry relative="1" as="geometry">
            <mxPoint x="1639" y="1161" as="sourcePoint" />
            <mxPoint x="1349" y="1161" as="targetPoint" />
          </mxGeometry>
        </mxCell>
        <mxCell id="0fOkP6vydw7_xEX31lQw-21" style="edgeStyle=orthogonalEdgeStyle;rounded=0;orthogonalLoop=1;jettySize=auto;html=1;entryX=1;entryY=0.25;entryDx=0;entryDy=0;strokeWidth=2;fontSize=12;" edge="1" parent="1">
          <mxGeometry relative="1" as="geometry">
            <mxPoint x="1639" y="1081" as="sourcePoint" />
            <mxPoint x="1349" y="1080.6" as="targetPoint" />
          </mxGeometry>
        </mxCell>
        <mxCell id="0fOkP6vydw7_xEX31lQw-22" value="&lt;div style=&quot;text-align: left;&quot;&gt;&lt;span style=&quot;background-color: initial; text-wrap: wrap;&quot;&gt;&lt;font face=&quot;Roboto, -apple-system, BlinkMacSystemFont, Helvetica, Arial, sans-serif&quot;&gt;/vehicle/status/control_mode&lt;/font&gt;&lt;/span&gt;&lt;/div&gt;" style="edgeLabel;html=1;align=center;verticalAlign=middle;resizable=0;points=[];labelBackgroundColor=none;fontStyle=3;fontSize=12;" vertex="1" connectable="0" parent="1">
          <mxGeometry x="1509.0013793103453" y="1071" as="geometry" />
        </mxCell>
        <mxCell id="0fOkP6vydw7_xEX31lQw-23" value="&lt;div style=&quot;text-align: left;&quot;&gt;&lt;span style=&quot;background-color: initial; text-wrap: wrap;&quot;&gt;&lt;font face=&quot;Roboto, -apple-system, BlinkMacSystemFont, Helvetica, Arial, sans-serif&quot;&gt;/vehicle/status/gear_status&lt;/font&gt;&lt;/span&gt;&lt;/div&gt;" style="edgeLabel;html=1;align=center;verticalAlign=middle;resizable=0;points=[];labelBackgroundColor=none;fontStyle=3;fontSize=12;fontColor=#000000;" vertex="1" connectable="0" parent="1">
          <mxGeometry x="1509.0013793103453" y="1191" as="geometry" />
        </mxCell>
        <mxCell id="0fOkP6vydw7_xEX31lQw-24" value="&lt;div style=&quot;text-align: left;&quot;&gt;&lt;span style=&quot;background-color: initial; text-wrap: wrap;&quot;&gt;&lt;font face=&quot;Roboto, -apple-system, BlinkMacSystemFont, Helvetica, Arial, sans-serif&quot;&gt;/vehicle/status/hazard_lights_status&lt;/font&gt;&lt;/span&gt;&lt;/div&gt;" style="edgeLabel;html=1;align=center;verticalAlign=middle;resizable=0;points=[];labelBackgroundColor=none;fontStyle=3;fontSize=12;fontColor=#666666;" vertex="1" connectable="0" parent="1">
          <mxGeometry x="1509.0013793103453" y="1231" as="geometry" />
        </mxCell>
        <mxCell id="0fOkP6vydw7_xEX31lQw-25" value="&lt;div style=&quot;text-align: left;&quot;&gt;&lt;span style=&quot;background-color: initial; text-wrap: wrap;&quot;&gt;&lt;font face=&quot;Roboto, -apple-system, BlinkMacSystemFont, Helvetica, Arial, sans-serif&quot;&gt;/vehicle/status/turn_indicators_status&lt;/font&gt;&lt;/span&gt;&lt;/div&gt;" style="edgeLabel;html=1;align=center;verticalAlign=middle;resizable=0;points=[];labelBackgroundColor=none;fontStyle=3;fontSize=12;fontColor=#666666;" vertex="1" connectable="0" parent="1">
          <mxGeometry x="1509.0013793103453" y="1271" as="geometry" />
        </mxCell>
        <mxCell id="0fOkP6vydw7_xEX31lQw-26" value="&lt;div style=&quot;text-align: left;&quot;&gt;&lt;span style=&quot;background-color: initial; text-wrap: wrap;&quot;&gt;&lt;font face=&quot;Roboto, -apple-system, BlinkMacSystemFont, Helvetica, Arial, sans-serif&quot;&gt;/vehicle/status/steering_status&lt;/font&gt;&lt;/span&gt;&lt;/div&gt;" style="edgeLabel;html=1;align=center;verticalAlign=middle;resizable=0;points=[];labelBackgroundColor=none;fontStyle=3;fontSize=12;" vertex="1" connectable="0" parent="1">
          <mxGeometry x="1509.0013793103453" y="1111" as="geometry" />
        </mxCell>
        <mxCell id="0fOkP6vydw7_xEX31lQw-27" value="&lt;div style=&quot;text-align: left;&quot;&gt;&lt;span style=&quot;background-color: initial; text-wrap: wrap;&quot;&gt;&lt;font face=&quot;Roboto, -apple-system, BlinkMacSystemFont, Helvetica, Arial, sans-serif&quot;&gt;/vehicle/status/velocity_status&lt;/font&gt;&lt;/span&gt;&lt;/div&gt;" style="edgeLabel;html=1;align=center;verticalAlign=middle;resizable=0;points=[];labelBackgroundColor=none;fontStyle=3;fontSize=12;" vertex="1" connectable="0" parent="1">
          <mxGeometry x="1509.0013793103453" y="1151" as="geometry" />
        </mxCell>
        <mxCell id="0fOkP6vydw7_xEX31lQw-30" value="&lt;div&gt;&lt;span style=&quot;font-weight: 700; font-family: Roboto, -apple-system, BlinkMacSystemFont, Helvetica, Arial, sans-serif; text-align: left;&quot;&gt;Service server&lt;/span&gt;&lt;/div&gt;&lt;div style=&quot;text-align: left;&quot;&gt;&lt;span style=&quot;background-color: initial;&quot;&gt;&lt;font face=&quot;Roboto, -apple-system, BlinkMacSystemFont, Helvetica, Arial, sans-serif&quot;&gt;&lt;b&gt;&lt;i&gt;/control/control_mode_request&lt;/i&gt;&lt;/b&gt;&lt;/font&gt;&lt;/span&gt;&lt;/div&gt;" style="rounded=1;whiteSpace=wrap;html=1;fillColor=#b0e3e6;strokeColor=#0e8088;strokeWidth=2;arcSize=25;fontSize=12;" vertex="1" parent="1">
          <mxGeometry x="1649" y="1032" width="210" height="50" as="geometry" />
        </mxCell>
        <mxCell id="0fOkP6vydw7_xEX31lQw-33" style="edgeStyle=orthogonalEdgeStyle;rounded=0;orthogonalLoop=1;jettySize=auto;html=1;entryX=1;entryY=0.25;entryDx=0;entryDy=0;strokeWidth=2;strokeColor=#000000;fontSize=12;" edge="1" parent="1">
          <mxGeometry relative="1" as="geometry">
            <mxPoint x="2159" y="1110.66" as="sourcePoint" />
            <mxPoint x="1869" y="1110.66" as="targetPoint" />
          </mxGeometry>
        </mxCell>
        <mxCell id="0fOkP6vydw7_xEX31lQw-34" value="&lt;span style=&quot;font-family: Roboto, -apple-system, BlinkMacSystemFont, Helvetica, Arial, sans-serif; text-align: left; text-wrap: wrap;&quot;&gt;/vehicle/engage&lt;/span&gt;" style="edgeLabel;html=1;align=center;verticalAlign=middle;resizable=0;points=[];labelBackgroundColor=none;fontStyle=3;fontSize=12;fontColor=#000000;" vertex="1" connectable="0" parent="0fOkP6vydw7_xEX31lQw-33">
          <mxGeometry x="-0.1515" y="3" relative="1" as="geometry">
            <mxPoint x="-7" y="-13" as="offset" />
          </mxGeometry>
        </mxCell>
        <mxCell id="0fOkP6vydw7_xEX31lQw-35" value="From Autoware" style="text;html=1;align=center;verticalAlign=middle;whiteSpace=wrap;rounded=0;fontStyle=1;fontColor=#999999;strokeColor=none;" vertex="1" parent="1">
          <mxGeometry x="2203" y="1176" width="60" height="30" as="geometry" />
        </mxCell>
        <mxCell id="0fOkP6vydw7_xEX31lQw-36" value="To Autoware" style="text;html=1;align=center;verticalAlign=middle;whiteSpace=wrap;rounded=0;fontStyle=1;fontColor=#999999;strokeColor=none;" vertex="1" parent="1">
          <mxGeometry x="1243" y="1166.66" width="60" height="30" as="geometry" />
        </mxCell>
        <mxCell id="4nw1BP8vNKtWQdp7otV7-4" value="&lt;span style=&quot;color: rgba(0, 0, 0, 0.87); font-family: Roboto, -apple-system, BlinkMacSystemFont, Helvetica, Arial, sans-serif; font-style: italic; font-weight: 700; text-align: left;&quot;&gt;/control/command/control_cmd&lt;/span&gt;" style="swimlane;fontStyle=0;childLayout=stackLayout;horizontal=1;startSize=30;horizontalStack=0;resizeParent=1;resizeParentMax=0;resizeLast=0;collapsible=1;marginBottom=0;whiteSpace=wrap;html=1;strokeWidth=2;" vertex="1" parent="1">
          <mxGeometry x="1243" y="1696" width="264" height="420" as="geometry" />
        </mxCell>
        <mxCell id="4nw1BP8vNKtWQdp7otV7-5" value="Time stamp" style="text;strokeColor=none;fillColor=none;align=left;verticalAlign=middle;spacingLeft=4;spacingRight=4;overflow=hidden;points=[[0,0.5],[1,0.5]];portConstraint=eastwest;rotatable=0;whiteSpace=wrap;html=1;" vertex="1" parent="4nw1BP8vNKtWQdp7otV7-4">
          <mxGeometry y="30" width="264" height="30" as="geometry" />
        </mxCell>
        <mxCell id="4nw1BP8vNKtWQdp7otV7-8" value="Lateral lateral" style="text;strokeColor=none;fillColor=none;align=left;verticalAlign=middle;spacingLeft=4;spacingRight=4;overflow=hidden;points=[[0,0.5],[1,0.5]];portConstraint=eastwest;rotatable=0;whiteSpace=wrap;html=1;" vertex="1" parent="4nw1BP8vNKtWQdp7otV7-4">
          <mxGeometry y="60" width="264" height="30" as="geometry" />
        </mxCell>
        <mxCell id="4nw1BP8vNKtWQdp7otV7-16" value="Time stamp" style="text;strokeColor=none;fillColor=none;align=left;verticalAlign=middle;spacingLeft=20;spacingRight=4;overflow=hidden;points=[[0,0.5],[1,0.5]];portConstraint=eastwest;rotatable=0;whiteSpace=wrap;html=1;" vertex="1" parent="4nw1BP8vNKtWQdp7otV7-4">
          <mxGeometry y="90" width="264" height="30" as="geometry" />
        </mxCell>
        <mxCell id="4nw1BP8vNKtWQdp7otV7-15" value="float32 steering_tire_angle (rad)" style="text;strokeColor=none;fillColor=none;align=left;verticalAlign=middle;spacingLeft=20;spacingRight=4;overflow=hidden;points=[[0,0.5],[1,0.5]];portConstraint=eastwest;rotatable=0;whiteSpace=wrap;html=1;" vertex="1" parent="4nw1BP8vNKtWQdp7otV7-4">
          <mxGeometry y="120" width="264" height="30" as="geometry" />
        </mxCell>
        <mxCell id="4nw1BP8vNKtWQdp7otV7-6" value="float32 steering_tire_rotation_rate (rad/s)" style="text;strokeColor=none;fillColor=none;align=left;verticalAlign=middle;spacingLeft=20;spacingRight=4;overflow=hidden;points=[[0,0.5],[1,0.5]];portConstraint=eastwest;rotatable=0;whiteSpace=wrap;html=1;" vertex="1" parent="4nw1BP8vNKtWQdp7otV7-4">
          <mxGeometry y="150" width="264" height="30" as="geometry" />
        </mxCell>
        <mxCell id="4nw1BP8vNKtWQdp7otV7-17" value="bool is_defined_steering_tire_rotation_rate" style="text;strokeColor=none;fillColor=none;align=left;verticalAlign=middle;spacingLeft=20;spacingRight=4;overflow=hidden;points=[[0,0.5],[1,0.5]];portConstraint=eastwest;rotatable=0;whiteSpace=wrap;html=1;" vertex="1" parent="4nw1BP8vNKtWQdp7otV7-4">
          <mxGeometry y="180" width="264" height="30" as="geometry" />
        </mxCell>
        <mxCell id="4nw1BP8vNKtWQdp7otV7-9" value="Longitudinal longitudinal" style="text;strokeColor=none;fillColor=none;align=left;verticalAlign=middle;spacingLeft=4;spacingRight=4;overflow=hidden;points=[[0,0.5],[1,0.5]];portConstraint=eastwest;rotatable=0;whiteSpace=wrap;html=1;" vertex="1" parent="4nw1BP8vNKtWQdp7otV7-4">
          <mxGeometry y="210" width="264" height="30" as="geometry" />
        </mxCell>
        <mxCell id="4nw1BP8vNKtWQdp7otV7-12" value="Time stamp" style="text;strokeColor=none;fillColor=none;align=left;verticalAlign=middle;spacingLeft=20;spacingRight=4;overflow=hidden;points=[[0,0.5],[1,0.5]];portConstraint=eastwest;rotatable=0;whiteSpace=wrap;html=1;" vertex="1" parent="4nw1BP8vNKtWQdp7otV7-4">
          <mxGeometry y="240" width="264" height="30" as="geometry" />
        </mxCell>
        <mxCell id="4nw1BP8vNKtWQdp7otV7-11" value="float32 velocity (m/s)" style="text;strokeColor=none;fillColor=none;align=left;verticalAlign=middle;spacingLeft=20;spacingRight=4;overflow=hidden;points=[[0,0.5],[1,0.5]];portConstraint=eastwest;rotatable=0;whiteSpace=wrap;html=1;" vertex="1" parent="4nw1BP8vNKtWQdp7otV7-4">
          <mxGeometry y="270" width="264" height="30" as="geometry" />
        </mxCell>
        <mxCell id="4nw1BP8vNKtWQdp7otV7-10" value="float32 acceleration (m/s²)" style="text;strokeColor=none;fillColor=none;align=left;verticalAlign=middle;spacingLeft=14;spacingRight=4;overflow=hidden;points=[[0,0.5],[1,0.5]];portConstraint=eastwest;rotatable=0;whiteSpace=wrap;html=1;" vertex="1" parent="4nw1BP8vNKtWQdp7otV7-4">
          <mxGeometry y="300" width="264" height="30" as="geometry" />
        </mxCell>
        <mxCell id="4nw1BP8vNKtWQdp7otV7-7" value="float32 jerk (m/s&lt;span style=&quot;font-size: 10px;&quot;&gt;³&lt;/span&gt;)" style="text;strokeColor=none;fillColor=none;align=left;verticalAlign=middle;spacingLeft=20;spacingRight=4;overflow=hidden;points=[[0,0.5],[1,0.5]];portConstraint=eastwest;rotatable=0;whiteSpace=wrap;html=1;" vertex="1" parent="4nw1BP8vNKtWQdp7otV7-4">
          <mxGeometry y="330" width="264" height="30" as="geometry" />
        </mxCell>
        <mxCell id="4nw1BP8vNKtWQdp7otV7-14" value="bool is_defined_acceleration" style="text;strokeColor=none;fillColor=none;align=left;verticalAlign=middle;spacingLeft=20;spacingRight=4;overflow=hidden;points=[[0,0.5],[1,0.5]];portConstraint=eastwest;rotatable=0;whiteSpace=wrap;html=1;" vertex="1" parent="4nw1BP8vNKtWQdp7otV7-4">
          <mxGeometry y="360" width="264" height="30" as="geometry" />
        </mxCell>
        <mxCell id="4nw1BP8vNKtWQdp7otV7-13" value="bool is_defined_jerk" style="text;strokeColor=none;fillColor=none;align=left;verticalAlign=middle;spacingLeft=20;spacingRight=4;overflow=hidden;points=[[0,0.5],[1,0.5]];portConstraint=eastwest;rotatable=0;whiteSpace=wrap;html=1;" vertex="1" parent="4nw1BP8vNKtWQdp7otV7-4">
          <mxGeometry y="390" width="264" height="30" as="geometry" />
        </mxCell>
        <mxCell id="tVT2nQnlvIjn-IPViOXO-1" value="&lt;h1 style=&quot;margin-top: 0px;&quot;&gt;Autoware&#39;s Vehicle Interface&lt;/h1&gt;&lt;p&gt;&lt;br&gt;&lt;/p&gt;" style="text;html=1;whiteSpace=wrap;overflow=hidden;rounded=0;" vertex="1" parent="1">
          <mxGeometry x="1190" y="850" width="390" height="120" as="geometry" />
        </mxCell>
        <mxCell id="tVT2nQnlvIjn-IPViOXO-2" value="" style="labelPosition=right;align=left;strokeWidth=2;shape=mxgraph.mockup.markup.curlyBrace;html=1;shadow=0;dashed=0;strokeColor=#999999;direction=north;fontColor=#999999;" vertex="1" parent="1">
          <mxGeometry x="1313" y="1058.74" width="20" height="245.84" as="geometry" />
        </mxCell>
        <mxCell id="tVT2nQnlvIjn-IPViOXO-3" value="" style="labelPosition=right;align=left;strokeWidth=2;shape=mxgraph.mockup.markup.curlyBrace;html=1;shadow=0;dashed=0;strokeColor=#999999;direction=north;rotation=-180;fontColor=#999999;" vertex="1" parent="1">
          <mxGeometry x="2173" y="1052.75" width="20" height="276.5" as="geometry" />
        </mxCell>
        <mxCell id="tVT2nQnlvIjn-IPViOXO-5" value="&lt;span style=&quot;font-family: Roboto, -apple-system, BlinkMacSystemFont, Helvetica, Arial, sans-serif; font-style: italic; font-weight: 700; text-align: left;&quot;&gt;/vehicle/status/steering_status&lt;/span&gt;" style="swimlane;fontStyle=0;childLayout=stackLayout;horizontal=1;startSize=30;horizontalStack=0;resizeParent=1;resizeParentMax=0;resizeLast=0;collapsible=1;marginBottom=0;whiteSpace=wrap;html=1;strokeWidth=2;" vertex="1" parent="1">
          <mxGeometry x="1994" y="1836" width="264" height="90" as="geometry" />
        </mxCell>
        <mxCell id="tVT2nQnlvIjn-IPViOXO-6" value="Time stamp" style="text;strokeColor=none;fillColor=none;align=left;verticalAlign=middle;spacingLeft=4;spacingRight=4;overflow=hidden;points=[[0,0.5],[1,0.5]];portConstraint=eastwest;rotatable=0;whiteSpace=wrap;html=1;" vertex="1" parent="tVT2nQnlvIjn-IPViOXO-5">
          <mxGeometry y="30" width="264" height="30" as="geometry" />
        </mxCell>
        <mxCell id="tVT2nQnlvIjn-IPViOXO-7" value="float32 steering_tire_angle (rad)" style="text;strokeColor=none;fillColor=none;align=left;verticalAlign=middle;spacingLeft=4;spacingRight=4;overflow=hidden;points=[[0,0.5],[1,0.5]];portConstraint=eastwest;rotatable=0;whiteSpace=wrap;html=1;" vertex="1" parent="tVT2nQnlvIjn-IPViOXO-5">
          <mxGeometry y="60" width="264" height="30" as="geometry" />
        </mxCell>
        <mxCell id="tVT2nQnlvIjn-IPViOXO-19" value="&lt;span style=&quot;font-family: Roboto, -apple-system, BlinkMacSystemFont, Helvetica, Arial, sans-serif; font-style: italic; font-weight: 700; text-align: left;&quot;&gt;/vehicle/status/velocity_Status&lt;/span&gt;" style="swimlane;fontStyle=0;childLayout=stackLayout;horizontal=1;startSize=30;horizontalStack=0;resizeParent=1;resizeParentMax=0;resizeLast=0;collapsible=1;marginBottom=0;whiteSpace=wrap;html=1;strokeWidth=2;" vertex="1" parent="1">
          <mxGeometry x="1994" y="1977" width="264" height="150" as="geometry" />
        </mxCell>
        <mxCell id="tVT2nQnlvIjn-IPViOXO-20" value="Header header" style="text;strokeColor=none;fillColor=none;align=left;verticalAlign=middle;spacingLeft=4;spacingRight=4;overflow=hidden;points=[[0,0.5],[1,0.5]];portConstraint=eastwest;rotatable=0;whiteSpace=wrap;html=1;strokeWidth=2;" vertex="1" parent="tVT2nQnlvIjn-IPViOXO-19">
          <mxGeometry y="30" width="264" height="30" as="geometry" />
        </mxCell>
        <mxCell id="tVT2nQnlvIjn-IPViOXO-21" value="float32 longitudinal_velocity (m/s)" style="text;strokeColor=none;fillColor=none;align=left;verticalAlign=middle;spacingLeft=4;spacingRight=4;overflow=hidden;points=[[0,0.5],[1,0.5]];portConstraint=eastwest;rotatable=0;whiteSpace=wrap;html=1;" vertex="1" parent="tVT2nQnlvIjn-IPViOXO-19">
          <mxGeometry y="60" width="264" height="30" as="geometry" />
        </mxCell>
        <mxCell id="tVT2nQnlvIjn-IPViOXO-26" value="float32 lateral_velocity (m/s)" style="text;strokeColor=none;fillColor=none;align=left;verticalAlign=middle;spacingLeft=4;spacingRight=4;overflow=hidden;points=[[0,0.5],[1,0.5]];portConstraint=eastwest;rotatable=0;whiteSpace=wrap;html=1;" vertex="1" parent="tVT2nQnlvIjn-IPViOXO-19">
          <mxGeometry y="90" width="264" height="30" as="geometry" />
        </mxCell>
        <mxCell id="tVT2nQnlvIjn-IPViOXO-33" value="float32 heading_rate (rad/s)" style="text;strokeColor=none;fillColor=none;align=left;verticalAlign=middle;spacingLeft=4;spacingRight=4;overflow=hidden;points=[[0,0.5],[1,0.5]];portConstraint=eastwest;rotatable=0;whiteSpace=wrap;html=1;" vertex="1" parent="tVT2nQnlvIjn-IPViOXO-19">
          <mxGeometry y="120" width="264" height="30" as="geometry" />
        </mxCell>
        <mxCell id="tVT2nQnlvIjn-IPViOXO-35" value="&lt;span style=&quot;font-family: Roboto, -apple-system, BlinkMacSystemFont, Helvetica, Arial, sans-serif; font-style: italic; font-weight: 700; text-align: left;&quot;&gt;/vehicle/status/gear_status&lt;/span&gt;" style="swimlane;fontStyle=0;childLayout=stackLayout;horizontal=1;startSize=30;horizontalStack=0;resizeParent=1;resizeParentMax=0;resizeLast=0;collapsible=1;marginBottom=0;whiteSpace=wrap;html=1;strokeWidth=2;" vertex="1" parent="1">
          <mxGeometry x="1994" y="2176" width="264" height="90" as="geometry" />
        </mxCell>
        <mxCell id="tVT2nQnlvIjn-IPViOXO-36" value="Time stamp" style="text;strokeColor=none;fillColor=none;align=left;verticalAlign=middle;spacingLeft=4;spacingRight=4;overflow=hidden;points=[[0,0.5],[1,0.5]];portConstraint=eastwest;rotatable=0;whiteSpace=wrap;html=1;" vertex="1" parent="tVT2nQnlvIjn-IPViOXO-35">
          <mxGeometry y="30" width="264" height="30" as="geometry" />
        </mxCell>
        <mxCell id="tVT2nQnlvIjn-IPViOXO-37" value="uint8 report" style="text;strokeColor=none;fillColor=none;align=left;verticalAlign=middle;spacingLeft=4;spacingRight=4;overflow=hidden;points=[[0,0.5],[1,0.5]];portConstraint=eastwest;rotatable=0;whiteSpace=wrap;html=1;" vertex="1" parent="tVT2nQnlvIjn-IPViOXO-35">
          <mxGeometry y="60" width="264" height="30" as="geometry" />
        </mxCell>
        <mxCell id="tVT2nQnlvIjn-IPViOXO-38" value="&lt;b style=&quot;font-family: Roboto, -apple-system, BlinkMacSystemFont, Helvetica, Arial, sans-serif; text-align: left;&quot;&gt;&lt;i&gt;/control/control_mode_request&lt;/i&gt;&lt;/b&gt;" style="swimlane;fontStyle=0;childLayout=stackLayout;horizontal=1;startSize=30;horizontalStack=0;resizeParent=1;resizeParentMax=0;resizeLast=0;collapsible=1;marginBottom=0;whiteSpace=wrap;html=1;strokeWidth=2;" vertex="1" parent="1">
          <mxGeometry x="1622" y="1977" width="264" height="150" as="geometry" />
        </mxCell>
        <mxCell id="tVT2nQnlvIjn-IPViOXO-39" value="Time stamp" style="text;strokeColor=none;fillColor=none;align=left;verticalAlign=middle;spacingLeft=4;spacingRight=4;overflow=hidden;points=[[0,0.5],[1,0.5]];portConstraint=eastwest;rotatable=0;whiteSpace=wrap;html=1;" vertex="1" parent="tVT2nQnlvIjn-IPViOXO-38">
          <mxGeometry y="30" width="264" height="30" as="geometry" />
        </mxCell>
        <mxCell id="tVT2nQnlvIjn-IPViOXO-40" value="uint8 mode" style="text;strokeColor=none;fillColor=none;align=left;verticalAlign=middle;spacingLeft=4;spacingRight=4;overflow=hidden;points=[[0,0.5],[1,0.5]];portConstraint=eastwest;rotatable=0;whiteSpace=wrap;html=1;" vertex="1" parent="tVT2nQnlvIjn-IPViOXO-38">
          <mxGeometry y="60" width="264" height="30" as="geometry" />
        </mxCell>
        <mxCell id="tVT2nQnlvIjn-IPViOXO-42" value="- - -" style="text;strokeColor=none;fillColor=none;align=left;verticalAlign=middle;spacingLeft=4;spacingRight=4;overflow=hidden;points=[[0,0.5],[1,0.5]];portConstraint=eastwest;rotatable=0;whiteSpace=wrap;html=1;" vertex="1" parent="tVT2nQnlvIjn-IPViOXO-38">
          <mxGeometry y="90" width="264" height="30" as="geometry" />
        </mxCell>
        <mxCell id="tVT2nQnlvIjn-IPViOXO-41" value="bool success" style="text;strokeColor=none;fillColor=none;align=left;verticalAlign=middle;spacingLeft=4;spacingRight=4;overflow=hidden;points=[[0,0.5],[1,0.5]];portConstraint=eastwest;rotatable=0;whiteSpace=wrap;html=1;" vertex="1" parent="tVT2nQnlvIjn-IPViOXO-38">
          <mxGeometry y="120" width="264" height="30" as="geometry" />
        </mxCell>
        <mxCell id="tVT2nQnlvIjn-IPViOXO-43" value="&lt;span style=&quot;font-family: Roboto, -apple-system, BlinkMacSystemFont, Helvetica, Arial, sans-serif; font-style: italic; font-weight: 700; text-align: left;&quot;&gt;/vehicle/status/control_mode&lt;/span&gt;" style="swimlane;fontStyle=0;childLayout=stackLayout;horizontal=1;startSize=30;horizontalStack=0;resizeParent=1;resizeParentMax=0;resizeLast=0;collapsible=1;marginBottom=0;whiteSpace=wrap;html=1;strokeWidth=2;" vertex="1" parent="1">
          <mxGeometry x="1994" y="1696" width="264" height="90" as="geometry" />
        </mxCell>
        <mxCell id="tVT2nQnlvIjn-IPViOXO-44" value="Time stamp" style="text;strokeColor=none;fillColor=none;align=left;verticalAlign=middle;spacingLeft=4;spacingRight=4;overflow=hidden;points=[[0,0.5],[1,0.5]];portConstraint=eastwest;rotatable=0;whiteSpace=wrap;html=1;" vertex="1" parent="tVT2nQnlvIjn-IPViOXO-43">
          <mxGeometry y="30" width="264" height="30" as="geometry" />
        </mxCell>
        <mxCell id="tVT2nQnlvIjn-IPViOXO-45" value="uint8 mode" style="text;strokeColor=none;fillColor=none;align=left;verticalAlign=middle;spacingLeft=4;spacingRight=4;overflow=hidden;points=[[0,0.5],[1,0.5]];portConstraint=eastwest;rotatable=0;whiteSpace=wrap;html=1;" vertex="1" parent="tVT2nQnlvIjn-IPViOXO-43">
          <mxGeometry y="60" width="264" height="30" as="geometry" />
        </mxCell>
        <mxCell id="tVT2nQnlvIjn-IPViOXO-46" value="&lt;span style=&quot;font-family: Roboto, -apple-system, BlinkMacSystemFont, Helvetica, Arial, sans-serif; font-style: italic; font-weight: 700; text-align: left;&quot;&gt;/control/command/gear_cmd&lt;/span&gt;" style="swimlane;fontStyle=0;childLayout=stackLayout;horizontal=1;startSize=30;horizontalStack=0;resizeParent=1;resizeParentMax=0;resizeLast=0;collapsible=1;marginBottom=0;whiteSpace=wrap;html=1;strokeWidth=2;" vertex="1" parent="1">
          <mxGeometry x="1622" y="1836" width="264" height="90" as="geometry" />
        </mxCell>
        <mxCell id="tVT2nQnlvIjn-IPViOXO-47" value="Time stamp" style="text;strokeColor=none;fillColor=none;align=left;verticalAlign=middle;spacingLeft=4;spacingRight=4;overflow=hidden;points=[[0,0.5],[1,0.5]];portConstraint=eastwest;rotatable=0;whiteSpace=wrap;html=1;" vertex="1" parent="tVT2nQnlvIjn-IPViOXO-46">
          <mxGeometry y="30" width="264" height="30" as="geometry" />
        </mxCell>
        <mxCell id="tVT2nQnlvIjn-IPViOXO-48" value="uint8 command" style="text;strokeColor=none;fillColor=none;align=left;verticalAlign=middle;spacingLeft=4;spacingRight=4;overflow=hidden;points=[[0,0.5],[1,0.5]];portConstraint=eastwest;rotatable=0;whiteSpace=wrap;html=1;" vertex="1" parent="tVT2nQnlvIjn-IPViOXO-46">
          <mxGeometry y="60" width="264" height="30" as="geometry" />
        </mxCell>
        <mxCell id="tVT2nQnlvIjn-IPViOXO-49" value="&lt;span style=&quot;font-family: Roboto, -apple-system, BlinkMacSystemFont, Helvetica, Arial, sans-serif; font-style: italic; font-weight: 700; text-align: left;&quot;&gt;/vehicle/engage&lt;/span&gt;" style="swimlane;fontStyle=0;childLayout=stackLayout;horizontal=1;startSize=30;horizontalStack=0;resizeParent=1;resizeParentMax=0;resizeLast=0;collapsible=1;marginBottom=0;whiteSpace=wrap;html=1;strokeWidth=2;" vertex="1" parent="1">
          <mxGeometry x="1622" y="1696" width="264" height="90" as="geometry" />
        </mxCell>
        <mxCell id="tVT2nQnlvIjn-IPViOXO-50" value="Time stamp" style="text;strokeColor=none;fillColor=none;align=left;verticalAlign=middle;spacingLeft=4;spacingRight=4;overflow=hidden;points=[[0,0.5],[1,0.5]];portConstraint=eastwest;rotatable=0;whiteSpace=wrap;html=1;" vertex="1" parent="tVT2nQnlvIjn-IPViOXO-49">
          <mxGeometry y="30" width="264" height="30" as="geometry" />
        </mxCell>
        <mxCell id="tVT2nQnlvIjn-IPViOXO-51" value="bool engage" style="text;strokeColor=none;fillColor=none;align=left;verticalAlign=middle;spacingLeft=4;spacingRight=4;overflow=hidden;points=[[0,0.5],[1,0.5]];portConstraint=eastwest;rotatable=0;whiteSpace=wrap;html=1;" vertex="1" parent="tVT2nQnlvIjn-IPViOXO-49">
          <mxGeometry y="60" width="264" height="30" as="geometry" />
        </mxCell>
      </root>
    </mxGraphModel>
  </diagram>
  <diagram id="IE5bgwlAi_ceSf-9HBHy" name="Class VilmaInterface">
    <mxGraphModel dx="2074" dy="883" grid="0" gridSize="10" guides="1" tooltips="1" connect="1" arrows="1" fold="1" page="1" pageScale="1" pageWidth="827" pageHeight="1169" math="0" shadow="0">
      <root>
        <mxCell id="0" />
        <mxCell id="1" parent="0" />
        <mxCell id="obHE11iGsbDRt1JKMey1-1" value="VilmaInterface" style="swimlane;fontStyle=1;align=center;verticalAlign=top;childLayout=stackLayout;horizontal=1;startSize=26;horizontalStack=0;resizeParent=1;resizeParentMax=0;resizeLast=0;collapsible=1;marginBottom=0;whiteSpace=wrap;html=1;swimlaneLine=1;fillColor=#f5f5f5;swimlaneFillColor=none;rounded=0;glass=0;shadow=0;strokeWidth=2;fontColor=#333333;strokeColor=#666666;" parent="1" vertex="1">
          <mxGeometry x="153" y="119" width="522" height="1068" as="geometry" />
        </mxCell>
        <mxCell id="obHE11iGsbDRt1JKMey1-2" value="&lt;div&gt;&lt;font face=&quot;Courier New&quot;&gt;// MA communication&lt;/font&gt;&lt;/div&gt;&lt;div&gt;&lt;font face=&quot;Courier New&quot;&gt;-&amp;nbsp;&lt;/font&gt;&lt;span style=&quot;background-color: transparent;&quot;&gt;&lt;font face=&quot;Courier New&quot;&gt;joystick_command_ : std::vector&amp;lt;double&amp;gt;&lt;/font&gt;&lt;/span&gt;&lt;/div&gt;&lt;div&gt;&lt;span style=&quot;background-color: transparent;&quot;&gt;&lt;font face=&quot;Courier New&quot;&gt;-&amp;nbsp;&lt;/font&gt;&lt;/span&gt;&lt;span style=&quot;background-color: transparent;&quot;&gt;&lt;font face=&quot;Courier New&quot;&gt;mutex_joystick_command_ : std::mutex&lt;/font&gt;&lt;/span&gt;&lt;/div&gt;&lt;font face=&quot;Courier New&quot;&gt;-&amp;nbsp;&lt;/font&gt;&lt;span style=&quot;font-family: &amp;quot;Courier New&amp;quot;;&quot;&gt;to_ma_vector_:&amp;nbsp;&lt;/span&gt;&lt;font face=&quot;Courier New&quot;&gt;std::vector&amp;lt;double&amp;gt;&lt;/font&gt;&lt;div&gt;&lt;font face=&quot;Courier New&quot;&gt;- from_ma_vector_: std::vector&amp;lt;double&amp;gt;&lt;/font&gt;&lt;/div&gt;&lt;div&gt;&lt;font face=&quot;Courier New&quot;&gt;- ma_operation_mode_: int&lt;/font&gt;&lt;/div&gt;&lt;div&gt;&lt;font face=&quot;Courier New&quot;&gt;-&amp;nbsp;&lt;/font&gt;&lt;span style=&quot;background-color: transparent;&quot;&gt;&lt;font face=&quot;Courier New&quot;&gt;vilma_control_mode_ : uint8_t&lt;/font&gt;&lt;/span&gt;&lt;/div&gt;&lt;div&gt;&lt;span style=&quot;background-color: transparent;&quot;&gt;&lt;font face=&quot;Courier New&quot;&gt;-&amp;nbsp;&lt;/font&gt;&lt;/span&gt;&lt;span style=&quot;background-color: transparent;&quot;&gt;&lt;font face=&quot;Courier New&quot;&gt;change_control_mode_enabled_ : bool&lt;/font&gt;&lt;/span&gt;&lt;/div&gt;&lt;div&gt;&lt;font face=&quot;Courier New&quot;&gt;- to_ma_length_: int&lt;/font&gt;&lt;/div&gt;&lt;div&gt;&lt;font face=&quot;Courier New&quot;&gt;- from_ma_length_: int&lt;/font&gt;&lt;/div&gt;&lt;div&gt;&lt;font face=&quot;Courier New&quot;&gt;-&amp;nbsp;&lt;/font&gt;&lt;span style=&quot;background-color: transparent;&quot;&gt;&lt;font face=&quot;Courier New&quot;&gt;ma_udp_client : microautobox::maudp&lt;/font&gt;&lt;/span&gt;&lt;/div&gt;&lt;div&gt;&lt;span style=&quot;background-color: transparent;&quot;&gt;&lt;font face=&quot;Courier New&quot;&gt;&lt;br&gt;&lt;/font&gt;&lt;/span&gt;&lt;/div&gt;&lt;div&gt;&lt;span style=&quot;background-color: transparent;&quot;&gt;&lt;font face=&quot;Courier New&quot;&gt;// Vehicle&lt;/font&gt;&lt;/span&gt;&lt;/div&gt;&lt;div&gt;&lt;span style=&quot;background-color: transparent;&quot;&gt;&lt;font face=&quot;Courier New&quot;&gt;-&amp;nbsp;&lt;/font&gt;&lt;/span&gt;&lt;span style=&quot;background-color: transparent;&quot;&gt;&lt;font face=&quot;Courier New&quot;&gt;brake_deadband_ : double&lt;/font&gt;&lt;/span&gt;&lt;/div&gt;&lt;div&gt;&lt;span style=&quot;background-color: transparent;&quot;&gt;&lt;font face=&quot;Courier New&quot;&gt;-&amp;nbsp;&lt;/font&gt;&lt;/span&gt;&lt;span style=&quot;background-color: transparent;&quot;&gt;&lt;font face=&quot;Courier New&quot;&gt;max_steering_tire_angle_rad_&lt;/font&gt;&lt;/span&gt;&lt;span style=&quot;font-family: &amp;quot;Courier New&amp;quot;; background-color: transparent; color: light-dark(rgb(0, 0, 0), rgb(255, 255, 255));&quot;&gt;&amp;nbsp;&lt;/span&gt;&lt;span style=&quot;font-family: &amp;quot;Courier New&amp;quot;; background-color: transparent; color: light-dark(rgb(0, 0, 0), rgb(255, 255, 255));&quot;&gt;: double&lt;/span&gt;&lt;/div&gt;&lt;div&gt;&lt;font face=&quot;Courier New&quot;&gt;-&amp;nbsp;&lt;/font&gt;&lt;span style=&quot;background-color: transparent;&quot;&gt;&lt;font face=&quot;Courier New&quot;&gt;max_gas_value_&lt;/font&gt;&lt;/span&gt;&lt;span style=&quot;font-family: &amp;quot;Courier New&amp;quot;; background-color: transparent; color: light-dark(rgb(0, 0, 0), rgb(255, 255, 255));&quot;&gt;&amp;nbsp;&lt;/span&gt;&lt;span style=&quot;font-family: &amp;quot;Courier New&amp;quot;; background-color: transparent; color: light-dark(rgb(0, 0, 0), rgb(255, 255, 255));&quot;&gt;: double&lt;/span&gt;&lt;/div&gt;&lt;div&gt;&lt;span style=&quot;background-color: transparent;&quot;&gt;&lt;font face=&quot;Courier New&quot;&gt;-&amp;nbsp;&lt;/font&gt;&lt;/span&gt;&lt;span style=&quot;background-color: transparent;&quot;&gt;&lt;font face=&quot;Courier New&quot;&gt;max_brake_value_&lt;/font&gt;&lt;/span&gt;&lt;span style=&quot;font-family: &amp;quot;Courier New&amp;quot;; background-color: transparent; color: light-dark(rgb(0, 0, 0), rgb(255, 255, 255));&quot;&gt;&amp;nbsp;&lt;/span&gt;&lt;span style=&quot;font-family: &amp;quot;Courier New&amp;quot;; background-color: transparent; color: light-dark(rgb(0, 0, 0), rgb(255, 255, 255));&quot;&gt;: double&lt;/span&gt;&lt;/div&gt;&lt;div&gt;&lt;font face=&quot;Courier New&quot;&gt;-&amp;nbsp;&lt;/font&gt;&lt;span style=&quot;background-color: transparent;&quot;&gt;&lt;font face=&quot;Courier New&quot;&gt;max_speed_m_s_&lt;/font&gt;&lt;/span&gt;&lt;span style=&quot;font-family: &amp;quot;Courier New&amp;quot;; background-color: transparent; color: light-dark(rgb(0, 0, 0), rgb(255, 255, 255));&quot;&gt;&amp;nbsp;&lt;/span&gt;&lt;span style=&quot;font-family: &amp;quot;Courier New&amp;quot;; background-color: transparent; color: light-dark(rgb(0, 0, 0), rgb(255, 255, 255));&quot;&gt;: double&lt;/span&gt;&lt;/div&gt;&lt;div&gt;&lt;span style=&quot;background-color: transparent;&quot;&gt;&lt;font face=&quot;Courier New&quot;&gt;-&amp;nbsp;&lt;/font&gt;&lt;/span&gt;&lt;span style=&quot;background-color: transparent;&quot;&gt;&lt;font face=&quot;Courier New&quot;&gt;speed_reference_ramp_rate_&lt;/font&gt;&lt;/span&gt;&lt;span style=&quot;font-family: &amp;quot;Courier New&amp;quot;; background-color: transparent; color: light-dark(rgb(0, 0, 0), rgb(255, 255, 255));&quot;&gt;&amp;nbsp;&lt;/span&gt;&lt;span style=&quot;font-family: &amp;quot;Courier New&amp;quot;; background-color: transparent; color: light-dark(rgb(0, 0, 0), rgb(255, 255, 255));&quot;&gt;: double&lt;/span&gt;&lt;/div&gt;&lt;div&gt;&lt;span style=&quot;background-color: transparent;&quot;&gt;&lt;font face=&quot;Courier New&quot;&gt;-&amp;nbsp;&lt;/font&gt;&lt;/span&gt;&lt;span style=&quot;background-color: transparent;&quot;&gt;&lt;font face=&quot;Courier New&quot;&gt;brake_user_pressure_set_emergency_&lt;/font&gt;&lt;/span&gt;&lt;span style=&quot;font-family: &amp;quot;Courier New&amp;quot;; background-color: transparent; color: light-dark(rgb(0, 0, 0), rgb(255, 255, 255));&quot;&gt;&amp;nbsp;&lt;/span&gt;&lt;span style=&quot;font-family: &amp;quot;Courier New&amp;quot;; background-color: transparent; color: light-dark(rgb(0, 0, 0), rgb(255, 255, 255));&quot;&gt;: double&lt;/span&gt;&lt;/div&gt;&lt;div&gt;&lt;span style=&quot;background-color: transparent;&quot;&gt;&lt;font face=&quot;Courier New&quot;&gt;-&amp;nbsp;&lt;/font&gt;&lt;/span&gt;&lt;span style=&quot;background-color: transparent;&quot;&gt;&lt;font face=&quot;Courier New&quot;&gt;autonomous_shift_enable_&lt;/font&gt;&lt;/span&gt;&lt;span style=&quot;font-family: &amp;quot;Courier New&amp;quot;; background-color: transparent; color: light-dark(rgb(0, 0, 0), rgb(255, 255, 255));&quot;&gt;&amp;nbsp;&lt;/span&gt;&lt;span style=&quot;font-family: &amp;quot;Courier New&amp;quot;; background-color: transparent; color: light-dark(rgb(0, 0, 0), rgb(255, 255, 255));&quot;&gt;: bool&lt;/span&gt;&lt;/div&gt;&lt;div&gt;&lt;span style=&quot;background-color: transparent;&quot;&gt;&lt;font face=&quot;Courier New&quot;&gt;-&amp;nbsp;&lt;/font&gt;&lt;/span&gt;&lt;span style=&quot;background-color: transparent;&quot;&gt;&lt;font face=&quot;Courier New&quot;&gt;velocity_controller_&lt;/font&gt;&lt;/span&gt;&lt;span style=&quot;font-family: &amp;quot;Courier New&amp;quot;; background-color: transparent; color: light-dark(rgb(0, 0, 0), rgb(255, 255, 255));&quot;&gt;&amp;nbsp;&lt;/span&gt;&lt;span style=&quot;font-family: &amp;quot;Courier New&amp;quot;; background-color: transparent; color: light-dark(rgb(0, 0, 0), rgb(255, 255, 255));&quot;&gt;: PIDLMA&lt;/span&gt;&lt;/div&gt;&lt;div&gt;&lt;br&gt;&lt;/div&gt;&lt;div&gt;&lt;font face=&quot;Courier New&quot;&gt;-&amp;nbsp;&lt;/font&gt;&lt;span style=&quot;background-color: transparent;&quot;&gt;&lt;font face=&quot;Courier New&quot;&gt;autoware_command_time_validity_ms_ : int&lt;/font&gt;&lt;/span&gt;&lt;/div&gt;&lt;div&gt;&lt;span style=&quot;background-color: transparent;&quot;&gt;&lt;font face=&quot;Courier New&quot;&gt;-&amp;nbsp;&lt;/font&gt;&lt;/span&gt;&lt;span style=&quot;background-color: transparent;&quot;&gt;&lt;font face=&quot;Courier New&quot;&gt;communication_timeout_ms_&lt;/font&gt;&lt;/span&gt;&lt;span style=&quot;font-family: &amp;quot;Courier New&amp;quot;; background-color: transparent; color: light-dark(rgb(0, 0, 0), rgb(255, 255, 255));&quot;&gt;&amp;nbsp;&lt;/span&gt;&lt;span style=&quot;font-family: &amp;quot;Courier New&amp;quot;; background-color: transparent; color: light-dark(rgb(0, 0, 0), rgb(255, 255, 255));&quot;&gt;: int&lt;/span&gt;&lt;/div&gt;&lt;div&gt;&lt;font face=&quot;Courier New&quot;&gt;&lt;br&gt;&lt;/font&gt;&lt;/div&gt;&lt;div&gt;&lt;font face=&quot;Courier New&quot;&gt;// ROS2&lt;/font&gt;&lt;/div&gt;&lt;div&gt;&lt;font face=&quot;Courier New&quot;&gt;-&amp;nbsp;&lt;/font&gt;&lt;span style=&quot;background-color: transparent;&quot;&gt;&lt;font face=&quot;Courier New&quot;&gt;ma_timer_last_stamp_ : rclcpp::Time&lt;/font&gt;&lt;/span&gt;&lt;/div&gt;&lt;div&gt;&lt;span style=&quot;background-color: transparent;&quot;&gt;&lt;font face=&quot;Courier New&quot;&gt;-&amp;nbsp;&lt;/font&gt;&lt;/span&gt;&lt;span style=&quot;background-color: transparent;&quot;&gt;&lt;font face=&quot;Courier New&quot;&gt;ma_timer_period_ms_&lt;/font&gt;&lt;/span&gt;&lt;span style=&quot;font-family: &amp;quot;Courier New&amp;quot;; background-color: transparent; color: light-dark(rgb(0, 0, 0), rgb(255, 255, 255));&quot;&gt;&amp;nbsp;&lt;/span&gt;&lt;span style=&quot;font-family: &amp;quot;Courier New&amp;quot;; background-color: transparent; color: light-dark(rgb(0, 0, 0), rgb(255, 255, 255));&quot;&gt;: int&lt;/span&gt;&lt;/div&gt;&lt;div&gt;&lt;span style=&quot;background-color: transparent;&quot;&gt;&lt;font face=&quot;Courier New&quot;&gt;-&amp;nbsp;&lt;/font&gt;&lt;/span&gt;&lt;span style=&quot;background-color: transparent;&quot;&gt;&lt;font face=&quot;Courier New&quot;&gt;ma_sleep_period_min_&lt;/font&gt;&lt;/span&gt;&lt;span style=&quot;font-family: &amp;quot;Courier New&amp;quot;; background-color: transparent; color: light-dark(rgb(0, 0, 0), rgb(255, 255, 255));&quot;&gt;&amp;nbsp;&lt;/span&gt;&lt;span style=&quot;font-family: &amp;quot;Courier New&amp;quot;; background-color: transparent; color: light-dark(rgb(0, 0, 0), rgb(255, 255, 255));&quot;&gt;: int&lt;/span&gt;&lt;/div&gt;&lt;div&gt;&lt;span style=&quot;background-color: transparent;&quot;&gt;&lt;font face=&quot;Courier New&quot;&gt;&lt;br&gt;&lt;/font&gt;&lt;/span&gt;&lt;/div&gt;&lt;div&gt;&lt;font face=&quot;Courier New&quot;&gt;- ma_timer_:&amp;nbsp;&lt;/font&gt;&lt;span style=&quot;background-color: transparent;&quot;&gt;&lt;font face=&quot;Courier New&quot;&gt;rclcpp::TimerBase&lt;/font&gt;&lt;/span&gt;&lt;/div&gt;&lt;div&gt;&lt;span style=&quot;background-color: transparent;&quot;&gt;&lt;font face=&quot;Courier New&quot;&gt;- ma_sleep_:&amp;nbsp;&lt;/font&gt;&lt;/span&gt;&lt;span style=&quot;background-color: transparent;&quot;&gt;&lt;font face=&quot;Courier New&quot;&gt;rclcpp::TimerBase&lt;/font&gt;&lt;/span&gt;&lt;/div&gt;&lt;div&gt;&lt;span style=&quot;background-color: transparent;&quot;&gt;&lt;font face=&quot;Courier New&quot;&gt;- control_cmd_sub_:&amp;nbsp;&lt;/font&gt;&lt;/span&gt;&lt;span style=&quot;background-color: transparent;&quot;&gt;&lt;font face=&quot;Courier New&quot;&gt;rclcpp::Subscription&lt;/font&gt;&lt;/span&gt;&lt;/div&gt;&lt;div&gt;&lt;span style=&quot;background-color: transparent;&quot;&gt;&lt;font face=&quot;Courier New&quot;&gt;- control_mode_server_:&amp;nbsp;&lt;/font&gt;&lt;/span&gt;&lt;span style=&quot;background-color: transparent;&quot;&gt;&lt;font face=&quot;Courier New&quot;&gt;rclcpp::Service&lt;/font&gt;&lt;/span&gt;&lt;/div&gt;&lt;div&gt;&lt;span style=&quot;background-color: transparent;&quot;&gt;&lt;font face=&quot;Courier New&quot;&gt;- engage_sub_&lt;/font&gt;&lt;/span&gt;&lt;span style=&quot;background-color: transparent; color: light-dark(rgb(0, 0, 0), rgb(255, 255, 255));&quot;&gt;&lt;font face=&quot;Courier New&quot;&gt;:&amp;nbsp;&lt;/font&gt;&lt;/span&gt;&lt;span style=&quot;background-color: transparent; color: light-dark(rgb(0, 0, 0), rgb(255, 255, 255));&quot;&gt;&lt;font face=&quot;Courier New&quot;&gt;rclcpp::Subscription&lt;/font&gt;&lt;/span&gt;&lt;/div&gt;&lt;div&gt;&lt;span style=&quot;background-color: transparent;&quot;&gt;&lt;font face=&quot;Courier New&quot;&gt;- gear_cmd_sub_&lt;/font&gt;&lt;/span&gt;&lt;span style=&quot;background-color: transparent; color: light-dark(rgb(0, 0, 0), rgb(255, 255, 255));&quot;&gt;&lt;font face=&quot;Courier New&quot;&gt;:&amp;nbsp;&lt;/font&gt;&lt;/span&gt;&lt;span style=&quot;background-color: transparent; color: light-dark(rgb(0, 0, 0), rgb(255, 255, 255));&quot;&gt;&lt;font face=&quot;Courier New&quot;&gt;rclcpp::Subscription&lt;/font&gt;&lt;/span&gt;&lt;/div&gt;&lt;font face=&quot;Courier New&quot;&gt;- joystick_ma_sub_&lt;/font&gt;&lt;span style=&quot;color: light-dark(rgb(0, 0, 0), rgb(255, 255, 255)); background-color: transparent;&quot;&gt;&lt;font face=&quot;Courier New&quot;&gt;:&amp;nbsp;&lt;/font&gt;&lt;/span&gt;&lt;span style=&quot;color: light-dark(rgb(0, 0, 0), rgb(255, 255, 255)); background-color: transparent;&quot;&gt;&lt;font face=&quot;Courier New&quot;&gt;rclcpp::Subscription&lt;/font&gt;&lt;/span&gt;&lt;div&gt;&lt;font face=&quot;Courier New&quot;&gt;- control_mode_pub_&lt;/font&gt;&lt;span style=&quot;background-color: transparent; color: light-dark(rgb(0, 0, 0), rgb(255, 255, 255));&quot;&gt;&lt;font face=&quot;Courier New&quot;&gt;:&amp;nbsp;&lt;/font&gt;&lt;/span&gt;&lt;span style=&quot;background-color: transparent; color: light-dark(rgb(0, 0, 0), rgb(255, 255, 255));&quot;&gt;&lt;font face=&quot;Courier New&quot;&gt;rclcpp::Publisher&lt;/font&gt;&lt;/span&gt;&lt;/div&gt;&lt;div&gt;&lt;font face=&quot;Courier New&quot;&gt;- steering_status_pub_&lt;/font&gt;&lt;span style=&quot;background-color: transparent; color: light-dark(rgb(0, 0, 0), rgb(255, 255, 255));&quot;&gt;&lt;font face=&quot;Courier New&quot;&gt;:&amp;nbsp;&lt;/font&gt;&lt;/span&gt;&lt;span style=&quot;background-color: transparent; color: light-dark(rgb(0, 0, 0), rgb(255, 255, 255));&quot;&gt;&lt;font face=&quot;Courier New&quot;&gt;rclcpp::Publisher&lt;/font&gt;&lt;/span&gt;&lt;/div&gt;&lt;div&gt;&lt;font face=&quot;Courier New&quot;&gt;- velocity_status_pub_&lt;/font&gt;&lt;span style=&quot;background-color: transparent; color: light-dark(rgb(0, 0, 0), rgb(255, 255, 255));&quot;&gt;&lt;font face=&quot;Courier New&quot;&gt;:&amp;nbsp;&lt;/font&gt;&lt;/span&gt;&lt;span style=&quot;background-color: transparent; color: light-dark(rgb(0, 0, 0), rgb(255, 255, 255));&quot;&gt;&lt;font face=&quot;Courier New&quot;&gt;rclcpp::Publisher&lt;/font&gt;&lt;/span&gt;&lt;/div&gt;&lt;div&gt;&lt;font face=&quot;Courier New&quot;&gt;- gear_status_pub_&lt;/font&gt;&lt;span style=&quot;background-color: transparent; color: light-dark(rgb(0, 0, 0), rgb(255, 255, 255));&quot;&gt;&lt;font face=&quot;Courier New&quot;&gt;:&amp;nbsp;&lt;/font&gt;&lt;/span&gt;&lt;span style=&quot;background-color: transparent; color: light-dark(rgb(0, 0, 0), rgb(255, 255, 255));&quot;&gt;&lt;font face=&quot;Courier New&quot;&gt;rclcpp::Publisher&lt;/font&gt;&lt;/span&gt;&lt;/div&gt;&lt;div&gt;&lt;font face=&quot;Courier New&quot;&gt;- sensors_ma_pub_: rclcpp::Publisher&lt;/font&gt;&lt;/div&gt;&lt;div&gt;&lt;font face=&quot;Courier New&quot;&gt;- state_ma_pub_: rclcpp::Publisher&lt;/font&gt;&lt;/div&gt;&lt;div&gt;&lt;font face=&quot;Courier New&quot;&gt;-&amp;nbsp;&lt;/font&gt;&lt;span style=&quot;background-color: initial;&quot;&gt;&lt;font face=&quot;Courier New&quot;&gt;state_ma_msg_ :&amp;nbsp;&lt;/font&gt;&lt;/span&gt;&lt;span style=&quot;background-color: initial;&quot;&gt;&lt;font face=&quot;Courier New&quot;&gt;std_msgs::msg::Float64MultiArray&lt;/font&gt;&lt;/span&gt;&lt;/div&gt;&lt;div&gt;&lt;span style=&quot;background-color: initial;&quot;&gt;&lt;font face=&quot;Courier New&quot;&gt;-&amp;nbsp;&lt;/font&gt;&lt;/span&gt;&lt;span style=&quot;background-color: initial;&quot;&gt;&lt;font face=&quot;Courier New&quot;&gt;sensors_ma_msg_ :&amp;nbsp;&lt;/font&gt;&lt;/span&gt;&lt;span style=&quot;background-color: initial;&quot;&gt;&lt;font face=&quot;Courier New&quot;&gt;std_msgs::msg::Float64MultiArray&lt;/font&gt;&lt;/span&gt;&lt;/div&gt;&lt;div&gt;&lt;font face=&quot;Courier New&quot;&gt;&lt;br&gt;&lt;/font&gt;&lt;/div&gt;&lt;div&gt;&lt;font face=&quot;Courier New&quot;&gt;- timers_callback_group_:&amp;nbsp;&lt;/font&gt;&lt;span style=&quot;background-color: transparent;&quot;&gt;&lt;font face=&quot;Courier New&quot;&gt;rclcpp::CallbackGroup&lt;/font&gt;&lt;/span&gt;&lt;/div&gt;&lt;div&gt;&lt;span style=&quot;background-color: transparent;&quot;&gt;&lt;font face=&quot;Courier New&quot;&gt;- subscribers_callback_group_:&amp;nbsp;&lt;/font&gt;&lt;/span&gt;&lt;span style=&quot;background-color: transparent;&quot;&gt;&lt;font face=&quot;Courier New&quot;&gt;rclcpp::CallbackGroup&lt;/font&gt;&lt;/span&gt;&lt;/div&gt;" style="text;strokeColor=none;fillColor=none;align=left;verticalAlign=top;spacingLeft=4;spacingRight=4;overflow=hidden;rotatable=0;points=[[0,0.5],[1,0.5]];portConstraint=eastwest;whiteSpace=wrap;html=1;" parent="obHE11iGsbDRt1JKMey1-1" vertex="1">
          <mxGeometry y="26" width="522" height="766" as="geometry" />
        </mxCell>
        <mxCell id="obHE11iGsbDRt1JKMey1-3" value="" style="line;strokeWidth=1;fillColor=none;align=left;verticalAlign=middle;spacingTop=-1;spacingLeft=3;spacingRight=3;rotatable=0;labelPosition=right;points=[];portConstraint=eastwest;strokeColor=inherit;" parent="obHE11iGsbDRt1JKMey1-1" vertex="1">
          <mxGeometry y="792" width="522" height="8" as="geometry" />
        </mxCell>
        <mxCell id="obHE11iGsbDRt1JKMey1-4" value="&lt;font face=&quot;Courier New&quot;&gt;+ VilmaInterface() : void&lt;/font&gt;&lt;div&gt;&lt;font face=&quot;Courier New&quot;&gt;+ ~VilmaInterface() : void&lt;/font&gt;&lt;/div&gt;&lt;div&gt;&lt;font face=&quot;Courier New&quot;&gt;&lt;br&gt;&lt;/font&gt;&lt;/div&gt;&lt;span style=&quot;font-family: &amp;quot;Courier New&amp;quot;;&quot;&gt;- ma_timer_callback() : void&lt;/span&gt;&lt;div&gt;&lt;span style=&quot;font-family: &amp;quot;Courier New&amp;quot;;&quot;&gt;- ma_sleep_callback() : void&lt;/span&gt;&lt;/div&gt;&lt;div&gt;&lt;font face=&quot;Courier New&quot;&gt;- control_cmd_callback(in msg) : void&lt;/font&gt;&lt;/div&gt;&lt;div&gt;&lt;font face=&quot;Courier New&quot;&gt;- control_mode_request_callback(in request, out response) : void&lt;/font&gt;&lt;/div&gt;&lt;div&gt;&lt;font face=&quot;Courier New&quot;&gt;- engage_callback(in msg) : void&lt;/font&gt;&lt;/div&gt;&lt;div&gt;&lt;font face=&quot;Courier New&quot;&gt;- gear_cmd_callback(in msg) : void&lt;/font&gt;&lt;/div&gt;&lt;div&gt;&lt;font face=&quot;Courier New&quot;&gt;&lt;br&gt;&lt;/font&gt;&lt;/div&gt;&lt;div&gt;&lt;font face=&quot;Courier New&quot;&gt;- to_ma() : int&lt;/font&gt;&lt;/div&gt;&lt;div&gt;&lt;font face=&quot;Courier New&quot;&gt;- from_ma(in type_tx: int, in stamp: Time) : void&lt;/font&gt;&lt;/div&gt;&lt;div&gt;&lt;font face=&quot;Courier New&quot;&gt;&lt;br&gt;&lt;/font&gt;&lt;/div&gt;&lt;div&gt;&lt;font face=&quot;Courier New&quot;&gt;- set_control_mode(in control_mode : uint8) : void&lt;/font&gt;&lt;/div&gt;&lt;div&gt;&lt;font face=&quot;Courier New&quot;&gt;- joystick_ma_callback(in msg) : void&lt;/font&gt;&lt;/div&gt;&lt;div&gt;&lt;font face=&quot;Courier New&quot;&gt;-&amp;nbsp;&lt;/font&gt;&lt;span style=&quot;background-color: transparent;&quot;&gt;&lt;font face=&quot;Courier New&quot;&gt;get_steering_value(in steering_tire_angle_rad) : double&lt;/font&gt;&lt;/span&gt;&lt;/div&gt;" style="text;strokeColor=none;fillColor=none;align=left;verticalAlign=top;spacingLeft=4;spacingRight=4;overflow=hidden;rotatable=0;points=[[0,0.5],[1,0.5]];portConstraint=eastwest;whiteSpace=wrap;html=1;" parent="obHE11iGsbDRt1JKMey1-1" vertex="1">
          <mxGeometry y="800" width="522" height="268" as="geometry" />
        </mxCell>
        <mxCell id="3GXPqd_MiJnX1NyaODIl-1" value="&lt;h1 style=&quot;margin-top: 0px;&quot;&gt;VilmaInterface Class&lt;/h1&gt;&lt;p&gt;Autoware&#39;s vehicle interface for VILMA02 autonomous vehicle using UDP communication with MicroAutobox.&lt;/p&gt;" style="text;html=1;whiteSpace=wrap;overflow=hidden;rounded=0;" parent="1" vertex="1">
          <mxGeometry x="16" y="19" width="390" height="86" as="geometry" />
        </mxCell>
      </root>
    </mxGraphModel>
  </diagram>
  <diagram name="VilmaInterface Threads" id="qfQ_0TzPPHKZfYzkFVLH">
    <mxGraphModel dx="1671" dy="151" grid="0" gridSize="10" guides="1" tooltips="1" connect="1" arrows="1" fold="1" page="1" pageScale="1" pageWidth="1169" pageHeight="827" math="0" shadow="0">
      <root>
        <mxCell id="-Q0pyj6XjPdck_S_sfpb-0" />
        <mxCell id="-Q0pyj6XjPdck_S_sfpb-1" parent="-Q0pyj6XjPdck_S_sfpb-0" />
        <mxCell id="hR6rneo7rfwBMAwjGEIa-49" style="edgeStyle=orthogonalEdgeStyle;shape=connector;curved=0;rounded=1;orthogonalLoop=1;jettySize=auto;html=1;entryX=0.048;entryY=1.025;entryDx=0;entryDy=0;entryPerimeter=0;strokeColor=default;strokeWidth=2;align=center;verticalAlign=middle;fontFamily=Helvetica;fontSize=11;fontColor=default;labelBackgroundColor=default;endArrow=classic;exitX=1;exitY=0.5;exitDx=0;exitDy=0;" edge="1" parent="-Q0pyj6XjPdck_S_sfpb-1" source="hR6rneo7rfwBMAwjGEIa-41" target="hR6rneo7rfwBMAwjGEIa-3">
          <mxGeometry relative="1" as="geometry" />
        </mxCell>
        <mxCell id="hR6rneo7rfwBMAwjGEIa-55" style="edgeStyle=orthogonalEdgeStyle;shape=connector;curved=0;rounded=1;orthogonalLoop=1;jettySize=auto;html=1;exitX=1;exitY=0.5;exitDx=0;exitDy=0;strokeColor=default;strokeWidth=2;align=center;verticalAlign=middle;fontFamily=Helvetica;fontSize=11;fontColor=default;labelBackgroundColor=default;endArrow=classic;" edge="1" parent="-Q0pyj6XjPdck_S_sfpb-1">
          <mxGeometry relative="1" as="geometry">
            <mxPoint x="247" y="2174.72" as="sourcePoint" />
            <mxPoint x="341.2" y="1950" as="targetPoint" />
            <Array as="points">
              <mxPoint x="341" y="2175" />
              <mxPoint x="341" y="1950" />
            </Array>
          </mxGeometry>
        </mxCell>
        <mxCell id="hR6rneo7rfwBMAwjGEIa-57" style="edgeStyle=orthogonalEdgeStyle;shape=connector;curved=0;rounded=1;orthogonalLoop=1;jettySize=auto;html=1;exitX=1;exitY=0.5;exitDx=0;exitDy=0;entryX=0.048;entryY=1.026;entryDx=0;entryDy=0;entryPerimeter=0;strokeColor=default;strokeWidth=2;align=center;verticalAlign=middle;fontFamily=Helvetica;fontSize=11;fontColor=default;labelBackgroundColor=default;endArrow=classic;" edge="1" parent="-Q0pyj6XjPdck_S_sfpb-1" source="hR6rneo7rfwBMAwjGEIa-40" target="hR6rneo7rfwBMAwjGEIa-2">
          <mxGeometry relative="1" as="geometry">
            <Array as="points">
              <mxPoint x="341" y="2260" />
            </Array>
          </mxGeometry>
        </mxCell>
        <mxCell id="hW3ZmFTd5xoD5PnI7xct-14" value="&lt;div style=&quot;text-align: left;&quot;&gt;&lt;span style=&quot;background-color: transparent; font-weight: normal;&quot;&gt;&lt;font face=&quot;Courier New&quot;&gt;MutuallyExclusive&lt;/font&gt;&lt;/span&gt;&lt;/div&gt;&lt;div style=&quot;&quot;&gt;&lt;font face=&quot;Courier New&quot;&gt;&lt;span style=&quot;font-weight: 400;&quot;&gt;or&amp;nbsp;&lt;/span&gt;&lt;/font&gt;&lt;span style=&quot;background-color: transparent; font-weight: 400;&quot;&gt;&lt;font face=&quot;Courier New&quot;&gt;Reentrant&lt;/font&gt;&lt;/span&gt;&lt;/div&gt;" style="rounded=0;whiteSpace=wrap;html=1;fillColor=#d5e8d4;strokeColor=#82b366;fontStyle=1" parent="-Q0pyj6XjPdck_S_sfpb-1" vertex="1">
          <mxGeometry x="425.5" y="1247" width="132" height="51" as="geometry" />
        </mxCell>
        <mxCell id="hW3ZmFTd5xoD5PnI7xct-13" value="&lt;div style=&quot;text-align: left;&quot;&gt;&lt;span style=&quot;background-color: transparent; font-weight: normal;&quot;&gt;&lt;font face=&quot;Courier New&quot;&gt;MutuallyExclusive&lt;/font&gt;&lt;/span&gt;&lt;/div&gt;" style="rounded=0;whiteSpace=wrap;html=1;fillColor=#d5e8d4;strokeColor=#82b366;fontStyle=1" parent="-Q0pyj6XjPdck_S_sfpb-1" vertex="1">
          <mxGeometry x="425.5" y="1007.5" width="132" height="35" as="geometry" />
        </mxCell>
        <mxCell id="-Q0pyj6XjPdck_S_sfpb-7" value="&lt;h1 style=&quot;margin-top: 0px;&quot;&gt;VilmaInterface Threads&lt;/h1&gt;&lt;p&gt;&lt;br&gt;&lt;/p&gt;" style="text;html=1;whiteSpace=wrap;overflow=hidden;rounded=0;" parent="-Q0pyj6XjPdck_S_sfpb-1" vertex="1">
          <mxGeometry x="19" y="854" width="285" height="67" as="geometry" />
        </mxCell>
        <mxCell id="-Q0pyj6XjPdck_S_sfpb-8" style="edgeStyle=orthogonalEdgeStyle;rounded=1;orthogonalLoop=1;jettySize=auto;html=1;entryX=0;entryY=0.25;entryDx=0;entryDy=0;curved=0;strokeWidth=2;" parent="-Q0pyj6XjPdck_S_sfpb-1" source="-Q0pyj6XjPdck_S_sfpb-9" target="hR6rneo7rfwBMAwjGEIa-0" edge="1">
          <mxGeometry relative="1" as="geometry" />
        </mxCell>
        <mxCell id="-Q0pyj6XjPdck_S_sfpb-9" value="&lt;span style=&quot;font-family: &amp;quot;Courier New&amp;quot;; text-align: left;&quot;&gt;timers_callback_group_&lt;/span&gt;" style="rounded=1;whiteSpace=wrap;html=1;fillColor=#d5e8d4;strokeColor=#82b366;fontStyle=1" parent="-Q0pyj6XjPdck_S_sfpb-1" vertex="1">
          <mxGeometry x="386.5" y="1037" width="210" height="60" as="geometry" />
        </mxCell>
        <mxCell id="-Q0pyj6XjPdck_S_sfpb-10" style="edgeStyle=orthogonalEdgeStyle;shape=connector;curved=0;rounded=1;orthogonalLoop=1;jettySize=auto;html=1;entryX=0;entryY=0.75;entryDx=0;entryDy=0;strokeColor=default;strokeWidth=2;align=center;verticalAlign=middle;fontFamily=Helvetica;fontSize=11;fontColor=default;labelBackgroundColor=default;endArrow=classic;" parent="-Q0pyj6XjPdck_S_sfpb-1" source="-Q0pyj6XjPdck_S_sfpb-11" target="hR6rneo7rfwBMAwjGEIa-0" edge="1">
          <mxGeometry relative="1" as="geometry" />
        </mxCell>
        <mxCell id="-Q0pyj6XjPdck_S_sfpb-11" value="&lt;span style=&quot;font-family: &amp;quot;Courier New&amp;quot;; text-align: left;&quot;&gt;subscribers_callback_group_&lt;/span&gt;" style="rounded=1;whiteSpace=wrap;html=1;fillColor=#d5e8d4;strokeColor=#82b366;fontStyle=1" parent="-Q0pyj6XjPdck_S_sfpb-1" vertex="1">
          <mxGeometry x="386.5" y="1291" width="210" height="79" as="geometry" />
        </mxCell>
        <mxCell id="-Q0pyj6XjPdck_S_sfpb-12" value="rclcpp::executors::MultiThreadedExecutor" style="rounded=1;whiteSpace=wrap;html=1;fillColor=#f8cecc;strokeColor=#b85450;" parent="-Q0pyj6XjPdck_S_sfpb-1" vertex="1">
          <mxGeometry x="849.5" y="1165" width="260" height="60" as="geometry" />
        </mxCell>
        <mxCell id="hW3ZmFTd5xoD5PnI7xct-3" style="edgeStyle=orthogonalEdgeStyle;shape=connector;curved=0;rounded=1;orthogonalLoop=1;jettySize=auto;html=1;entryX=0;entryY=0.75;entryDx=0;entryDy=0;strokeColor=default;strokeWidth=2;align=center;verticalAlign=middle;fontFamily=Helvetica;fontSize=11;fontColor=default;labelBackgroundColor=default;endArrow=classic;" parent="-Q0pyj6XjPdck_S_sfpb-1" source="hW3ZmFTd5xoD5PnI7xct-0" target="-Q0pyj6XjPdck_S_sfpb-9" edge="1">
          <mxGeometry relative="1" as="geometry" />
        </mxCell>
        <mxCell id="hW3ZmFTd5xoD5PnI7xct-0" value="&lt;span style=&quot;font-family: &amp;quot;Courier New&amp;quot;; font-size: 12px; text-align: left;&quot;&gt;ma_sleep_callback&lt;/span&gt;" style="rounded=1;whiteSpace=wrap;html=1;fontFamily=Helvetica;fontSize=11;labelBackgroundColor=none;fillColor=#f5f5f5;strokeColor=#666666;fontColor=#333333;" parent="-Q0pyj6XjPdck_S_sfpb-1" vertex="1">
          <mxGeometry x="91.5" y="1081" width="150" height="60" as="geometry" />
        </mxCell>
        <mxCell id="hW3ZmFTd5xoD5PnI7xct-2" style="edgeStyle=orthogonalEdgeStyle;shape=connector;curved=0;rounded=1;orthogonalLoop=1;jettySize=auto;html=1;entryX=0;entryY=0.25;entryDx=0;entryDy=0;strokeColor=default;strokeWidth=2;align=center;verticalAlign=middle;fontFamily=Helvetica;fontSize=11;fontColor=default;labelBackgroundColor=default;endArrow=classic;" parent="-Q0pyj6XjPdck_S_sfpb-1" source="hW3ZmFTd5xoD5PnI7xct-1" target="-Q0pyj6XjPdck_S_sfpb-9" edge="1">
          <mxGeometry relative="1" as="geometry" />
        </mxCell>
        <mxCell id="hW3ZmFTd5xoD5PnI7xct-1" value="&lt;span style=&quot;font-family: &amp;quot;Courier New&amp;quot;; font-size: 12px; text-align: left;&quot;&gt;ma_timer_callback&lt;/span&gt;" style="rounded=1;whiteSpace=wrap;html=1;fontFamily=Helvetica;fontSize=11;labelBackgroundColor=none;fillColor=#f5f5f5;strokeColor=#666666;fontColor=#333333;" parent="-Q0pyj6XjPdck_S_sfpb-1" vertex="1">
          <mxGeometry x="91.5" y="995" width="150" height="60" as="geometry" />
        </mxCell>
        <mxCell id="hW3ZmFTd5xoD5PnI7xct-10" style="edgeStyle=orthogonalEdgeStyle;shape=connector;curved=0;rounded=1;orthogonalLoop=1;jettySize=auto;html=1;strokeColor=default;strokeWidth=2;align=center;verticalAlign=middle;fontFamily=Helvetica;fontSize=11;fontColor=default;labelBackgroundColor=default;endArrow=classic;exitX=1;exitY=0.5;exitDx=0;exitDy=0;entryX=0;entryY=0.62;entryDx=0;entryDy=0;entryPerimeter=0;" parent="-Q0pyj6XjPdck_S_sfpb-1" source="hW3ZmFTd5xoD5PnI7xct-4" target="-Q0pyj6XjPdck_S_sfpb-11" edge="1">
          <mxGeometry relative="1" as="geometry">
            <mxPoint x="385.5" y="1342" as="targetPoint" />
            <Array as="points">
              <mxPoint x="303.5" y="1372" />
              <mxPoint x="303.5" y="1339" />
            </Array>
          </mxGeometry>
        </mxCell>
        <mxCell id="hW3ZmFTd5xoD5PnI7xct-4" value="&lt;span style=&quot;font-family: &amp;quot;Courier New&amp;quot;; font-size: 12px; text-align: left;&quot;&gt;gear_cmd_callback&lt;/span&gt;" style="rounded=1;whiteSpace=wrap;html=1;fontFamily=Helvetica;fontSize=11;labelBackgroundColor=none;fillColor=#dae8fc;strokeColor=#6c8ebf;" parent="-Q0pyj6XjPdck_S_sfpb-1" vertex="1">
          <mxGeometry x="59" y="1342" width="215" height="60" as="geometry" />
        </mxCell>
        <mxCell id="hW3ZmFTd5xoD5PnI7xct-11" style="edgeStyle=orthogonalEdgeStyle;shape=connector;curved=0;rounded=1;orthogonalLoop=1;jettySize=auto;html=1;strokeColor=default;strokeWidth=2;align=center;verticalAlign=middle;fontFamily=Helvetica;fontSize=11;fontColor=default;labelBackgroundColor=default;endArrow=classic;entryX=0;entryY=0.817;entryDx=0;entryDy=0;entryPerimeter=0;" parent="-Q0pyj6XjPdck_S_sfpb-1" source="hW3ZmFTd5xoD5PnI7xct-5" target="-Q0pyj6XjPdck_S_sfpb-11" edge="1">
          <mxGeometry relative="1" as="geometry">
            <mxPoint x="383.4230769230769" y="1368.4358974358975" as="targetPoint" />
          </mxGeometry>
        </mxCell>
        <mxCell id="hW3ZmFTd5xoD5PnI7xct-5" value="&lt;span style=&quot;font-family: &amp;quot;Courier New&amp;quot;; font-size: 12px; text-align: left;&quot;&gt;engage_callback&lt;/span&gt;" style="rounded=1;whiteSpace=wrap;html=1;fontFamily=Helvetica;fontSize=11;labelBackgroundColor=none;fillColor=#dae8fc;strokeColor=#6c8ebf;" parent="-Q0pyj6XjPdck_S_sfpb-1" vertex="1">
          <mxGeometry x="59" y="1426" width="215" height="60" as="geometry" />
        </mxCell>
        <mxCell id="hW3ZmFTd5xoD5PnI7xct-9" style="edgeStyle=orthogonalEdgeStyle;shape=connector;curved=0;rounded=1;orthogonalLoop=1;jettySize=auto;html=1;entryX=-0.001;entryY=0.395;entryDx=0;entryDy=0;strokeColor=default;strokeWidth=2;align=center;verticalAlign=middle;fontFamily=Helvetica;fontSize=11;fontColor=default;labelBackgroundColor=default;endArrow=classic;entryPerimeter=0;exitX=1;exitY=0.5;exitDx=0;exitDy=0;" parent="-Q0pyj6XjPdck_S_sfpb-1" source="hW3ZmFTd5xoD5PnI7xct-6" target="-Q0pyj6XjPdck_S_sfpb-11" edge="1">
          <mxGeometry relative="1" as="geometry">
            <Array as="points">
              <mxPoint x="302.5" y="1286" />
              <mxPoint x="302.5" y="1322" />
            </Array>
          </mxGeometry>
        </mxCell>
        <mxCell id="hW3ZmFTd5xoD5PnI7xct-6" value="&lt;span style=&quot;font-family: &amp;quot;Courier New&amp;quot;; font-size: 12px; text-align: left;&quot;&gt;control_mode_request_callback&lt;/span&gt;" style="rounded=1;whiteSpace=wrap;html=1;fontFamily=Helvetica;fontSize=11;labelBackgroundColor=none;fillColor=#dae8fc;strokeColor=#6c8ebf;" parent="-Q0pyj6XjPdck_S_sfpb-1" vertex="1">
          <mxGeometry x="59" y="1256" width="215" height="60" as="geometry" />
        </mxCell>
        <mxCell id="hW3ZmFTd5xoD5PnI7xct-8" style="edgeStyle=orthogonalEdgeStyle;shape=connector;curved=0;rounded=1;orthogonalLoop=1;jettySize=auto;html=1;entryX=0.001;entryY=0.185;entryDx=0;entryDy=0;strokeColor=default;strokeWidth=2;align=center;verticalAlign=middle;fontFamily=Helvetica;fontSize=11;fontColor=default;labelBackgroundColor=default;endArrow=classic;entryPerimeter=0;" parent="-Q0pyj6XjPdck_S_sfpb-1" source="hW3ZmFTd5xoD5PnI7xct-7" target="-Q0pyj6XjPdck_S_sfpb-11" edge="1">
          <mxGeometry relative="1" as="geometry" />
        </mxCell>
        <mxCell id="hW3ZmFTd5xoD5PnI7xct-7" value="&lt;span style=&quot;font-family: &amp;quot;Courier New&amp;quot;; font-size: 12px; text-align: left;&quot;&gt;control_cmd_callback&lt;/span&gt;" style="rounded=1;whiteSpace=wrap;html=1;fontFamily=Helvetica;fontSize=11;labelBackgroundColor=none;fillColor=#dae8fc;strokeColor=#6c8ebf;" parent="-Q0pyj6XjPdck_S_sfpb-1" vertex="1">
          <mxGeometry x="59" y="1174" width="215" height="60" as="geometry" />
        </mxCell>
        <mxCell id="hR6rneo7rfwBMAwjGEIa-1" value="" style="edgeStyle=orthogonalEdgeStyle;rounded=0;orthogonalLoop=1;jettySize=auto;html=1;strokeWidth=2;" edge="1" parent="-Q0pyj6XjPdck_S_sfpb-1" source="hR6rneo7rfwBMAwjGEIa-0" target="-Q0pyj6XjPdck_S_sfpb-12">
          <mxGeometry relative="1" as="geometry" />
        </mxCell>
        <mxCell id="hR6rneo7rfwBMAwjGEIa-0" value="vilma_interface_node" style="rounded=1;whiteSpace=wrap;html=1;fillColor=#ffe6cc;strokeColor=#d79b00;" vertex="1" parent="-Q0pyj6XjPdck_S_sfpb-1">
          <mxGeometry x="659.5" y="1165" width="148" height="60" as="geometry" />
        </mxCell>
        <mxCell id="hR6rneo7rfwBMAwjGEIa-63" style="edgeStyle=orthogonalEdgeStyle;shape=connector;curved=0;rounded=1;orthogonalLoop=1;jettySize=auto;html=1;exitX=1;exitY=0.5;exitDx=0;exitDy=0;entryX=0;entryY=0.5;entryDx=0;entryDy=0;strokeColor=#b85450;strokeWidth=2;align=center;verticalAlign=middle;fontFamily=Helvetica;fontSize=11;fontColor=default;labelBackgroundColor=default;endArrow=classic;fillColor=#f8cecc;" edge="1" parent="-Q0pyj6XjPdck_S_sfpb-1" source="hR6rneo7rfwBMAwjGEIa-3" target="hR6rneo7rfwBMAwjGEIa-62">
          <mxGeometry relative="1" as="geometry" />
        </mxCell>
        <mxCell id="hR6rneo7rfwBMAwjGEIa-14" value="&lt;b&gt;&lt;font face=&quot;Courier New&quot;&gt;joystick_command_&lt;/font&gt;&lt;/b&gt;" style="swimlane;fontStyle=0;childLayout=stackLayout;horizontal=1;startSize=30;horizontalStack=0;resizeParent=1;resizeParentMax=0;resizeLast=0;collapsible=1;marginBottom=0;whiteSpace=wrap;html=1;strokeWidth=2;strokeColor=#666666;fillColor=#f5f5f5;fontColor=#333333;" vertex="1" parent="-Q0pyj6XjPdck_S_sfpb-1">
          <mxGeometry x="312" y="1846" width="608" height="103" as="geometry" />
        </mxCell>
        <mxCell id="qaPjrmuTButraqcFfIDZ-0" value="mutex_joystick_command_" style="rounded=0;whiteSpace=wrap;html=1;fontFamily=Courier New;fontSize=12;labelBackgroundColor=none;fillColor=#e1d5e7;strokeColor=none;fontStyle=0;rotation=0;" vertex="1" parent="hR6rneo7rfwBMAwjGEIa-14">
          <mxGeometry y="30" width="608" height="33" as="geometry" />
        </mxCell>
        <mxCell id="hR6rneo7rfwBMAwjGEIa-2" value="" style="shape=table;startSize=0;container=1;collapsible=0;childLayout=tableLayout;rounded=0;swimlaneLine=1;fontFamily=Courier New;fillColor=#f5f5f5;fontColor=#333333;strokeColor=#666666;" vertex="1" parent="hR6rneo7rfwBMAwjGEIa-14">
          <mxGeometry y="63" width="608" height="40" as="geometry" />
        </mxCell>
        <mxCell id="hR6rneo7rfwBMAwjGEIa-3" value="" style="shape=tableRow;horizontal=0;startSize=0;swimlaneHead=0;swimlaneBody=0;strokeColor=inherit;top=0;left=0;bottom=0;right=0;collapsible=0;dropTarget=0;fillColor=none;points=[[0,0.5],[1,0.5]];portConstraint=eastwest;" vertex="1" parent="hR6rneo7rfwBMAwjGEIa-2">
          <mxGeometry width="608" height="40" as="geometry" />
        </mxCell>
        <mxCell id="hR6rneo7rfwBMAwjGEIa-4" value="Stamp" style="shape=partialRectangle;html=1;whiteSpace=wrap;connectable=0;strokeColor=inherit;overflow=hidden;fillColor=none;top=0;left=0;bottom=0;right=0;pointerEvents=1;fontFamily=Courier New;" vertex="1" parent="hR6rneo7rfwBMAwjGEIa-3">
          <mxGeometry width="62" height="40" as="geometry">
            <mxRectangle width="62" height="40" as="alternateBounds" />
          </mxGeometry>
        </mxCell>
        <mxCell id="hR6rneo7rfwBMAwjGEIa-5" value="Time&lt;div&gt;Validity&lt;/div&gt;" style="shape=partialRectangle;html=1;whiteSpace=wrap;connectable=0;strokeColor=inherit;overflow=hidden;fillColor=none;top=0;left=0;bottom=0;right=0;pointerEvents=1;fontFamily=Courier New;" vertex="1" parent="hR6rneo7rfwBMAwjGEIa-3">
          <mxGeometry x="62" width="60" height="40" as="geometry">
            <mxRectangle width="60" height="40" as="alternateBounds" />
          </mxGeometry>
        </mxCell>
        <mxCell id="hR6rneo7rfwBMAwjGEIa-6" value="Brake Command" style="shape=partialRectangle;html=1;whiteSpace=wrap;connectable=0;strokeColor=inherit;overflow=hidden;fillColor=none;top=0;left=0;bottom=0;right=0;pointerEvents=1;fontFamily=Courier New;" vertex="1" parent="hR6rneo7rfwBMAwjGEIa-3">
          <mxGeometry x="122" width="60" height="40" as="geometry">
            <mxRectangle width="60" height="40" as="alternateBounds" />
          </mxGeometry>
        </mxCell>
        <mxCell id="hR6rneo7rfwBMAwjGEIa-7" value="Brake Value" style="shape=partialRectangle;html=1;whiteSpace=wrap;connectable=0;strokeColor=inherit;overflow=hidden;fillColor=none;top=0;left=0;bottom=0;right=0;pointerEvents=1;fontFamily=Courier New;" vertex="1" parent="hR6rneo7rfwBMAwjGEIa-3">
          <mxGeometry x="182" width="62" height="40" as="geometry">
            <mxRectangle width="62" height="40" as="alternateBounds" />
          </mxGeometry>
        </mxCell>
        <mxCell id="hR6rneo7rfwBMAwjGEIa-8" value="Steer Command" style="shape=partialRectangle;html=1;whiteSpace=wrap;connectable=0;strokeColor=inherit;overflow=hidden;fillColor=none;top=0;left=0;bottom=0;right=0;pointerEvents=1;fontFamily=Courier New;" vertex="1" parent="hR6rneo7rfwBMAwjGEIa-3">
          <mxGeometry x="244" width="60" height="40" as="geometry">
            <mxRectangle width="60" height="40" as="alternateBounds" />
          </mxGeometry>
        </mxCell>
        <mxCell id="hR6rneo7rfwBMAwjGEIa-9" value="Steer Value" style="shape=partialRectangle;html=1;whiteSpace=wrap;connectable=0;strokeColor=inherit;overflow=hidden;fillColor=none;top=0;left=0;bottom=0;right=0;pointerEvents=1;fontFamily=Courier New;" vertex="1" parent="hR6rneo7rfwBMAwjGEIa-3">
          <mxGeometry x="304" width="60" height="40" as="geometry">
            <mxRectangle width="60" height="40" as="alternateBounds" />
          </mxGeometry>
        </mxCell>
        <mxCell id="hR6rneo7rfwBMAwjGEIa-10" value="Gas Command" style="shape=partialRectangle;html=1;whiteSpace=wrap;connectable=0;strokeColor=inherit;overflow=hidden;fillColor=none;top=0;left=0;bottom=0;right=0;pointerEvents=1;fontFamily=Courier New;" vertex="1" parent="hR6rneo7rfwBMAwjGEIa-3">
          <mxGeometry x="364" width="62" height="40" as="geometry">
            <mxRectangle width="62" height="40" as="alternateBounds" />
          </mxGeometry>
        </mxCell>
        <mxCell id="hR6rneo7rfwBMAwjGEIa-11" value="Gas Value" style="shape=partialRectangle;html=1;whiteSpace=wrap;connectable=0;strokeColor=inherit;overflow=hidden;fillColor=none;top=0;left=0;bottom=0;right=0;pointerEvents=1;fontFamily=Courier New;" vertex="1" parent="hR6rneo7rfwBMAwjGEIa-3">
          <mxGeometry x="426" width="60" height="40" as="geometry">
            <mxRectangle width="60" height="40" as="alternateBounds" />
          </mxGeometry>
        </mxCell>
        <mxCell id="hR6rneo7rfwBMAwjGEIa-12" value="Gear State" style="shape=partialRectangle;html=1;whiteSpace=wrap;connectable=0;strokeColor=inherit;overflow=hidden;fillColor=none;top=0;left=0;bottom=0;right=0;pointerEvents=1;fontFamily=Courier New;" vertex="1" parent="hR6rneo7rfwBMAwjGEIa-3">
          <mxGeometry x="486" width="60" height="40" as="geometry">
            <mxRectangle width="60" height="40" as="alternateBounds" />
          </mxGeometry>
        </mxCell>
        <mxCell id="hR6rneo7rfwBMAwjGEIa-13" value="Gear Value" style="shape=partialRectangle;html=1;whiteSpace=wrap;connectable=0;strokeColor=inherit;overflow=hidden;fillColor=none;top=0;left=0;bottom=0;right=0;pointerEvents=1;fontFamily=Courier New;" vertex="1" parent="hR6rneo7rfwBMAwjGEIa-3">
          <mxGeometry x="546" width="62" height="40" as="geometry">
            <mxRectangle width="62" height="40" as="alternateBounds" />
          </mxGeometry>
        </mxCell>
        <mxCell id="hR6rneo7rfwBMAwjGEIa-39" value="&lt;span style=&quot;font-family: &amp;quot;Courier New&amp;quot;; font-size: 12px; text-align: left;&quot;&gt;gear_cmd_callback&lt;/span&gt;" style="rounded=1;whiteSpace=wrap;html=1;fontFamily=Helvetica;fontSize=11;labelBackgroundColor=none;fillColor=#d5e8d4;strokeColor=#82b366;" vertex="1" parent="-Q0pyj6XjPdck_S_sfpb-1">
          <mxGeometry x="35" y="2146" width="215" height="60" as="geometry" />
        </mxCell>
        <mxCell id="hR6rneo7rfwBMAwjGEIa-40" value="&lt;span style=&quot;font-family: &amp;quot;Courier New&amp;quot;; font-size: 12px; text-align: left;&quot;&gt;engage_callback&lt;/span&gt;" style="rounded=1;whiteSpace=wrap;html=1;fontFamily=Helvetica;fontSize=11;labelBackgroundColor=none;fillColor=#ffe6cc;strokeColor=#d79b00;" vertex="1" parent="-Q0pyj6XjPdck_S_sfpb-1">
          <mxGeometry x="35" y="2230" width="215" height="60" as="geometry" />
        </mxCell>
        <mxCell id="hR6rneo7rfwBMAwjGEIa-41" value="&lt;span style=&quot;font-family: &amp;quot;Courier New&amp;quot;; font-size: 12px; text-align: left;&quot;&gt;control_mode_request_callback&lt;/span&gt;" style="rounded=1;whiteSpace=wrap;html=1;fontFamily=Helvetica;fontSize=11;labelBackgroundColor=none;fillColor=#ffe6cc;strokeColor=#d79b00;" vertex="1" parent="-Q0pyj6XjPdck_S_sfpb-1">
          <mxGeometry x="35" y="2060" width="215" height="60" as="geometry" />
        </mxCell>
        <mxCell id="hR6rneo7rfwBMAwjGEIa-42" value="&lt;span style=&quot;font-family: &amp;quot;Courier New&amp;quot;; font-size: 12px; text-align: left;&quot;&gt;control_cmd_callback&lt;/span&gt;" style="rounded=1;whiteSpace=wrap;html=1;fontFamily=Helvetica;fontSize=11;labelBackgroundColor=none;fillColor=#dae8fc;strokeColor=#6c8ebf;" vertex="1" parent="-Q0pyj6XjPdck_S_sfpb-1">
          <mxGeometry x="35" y="1978" width="215" height="60" as="geometry" />
        </mxCell>
        <mxCell id="hR6rneo7rfwBMAwjGEIa-43" style="edgeStyle=orthogonalEdgeStyle;rounded=1;orthogonalLoop=1;jettySize=auto;html=1;entryX=0.048;entryY=1.025;entryDx=0;entryDy=0;entryPerimeter=0;curved=0;strokeWidth=2;exitX=1;exitY=0.5;exitDx=0;exitDy=0;" edge="1" parent="-Q0pyj6XjPdck_S_sfpb-1" source="hR6rneo7rfwBMAwjGEIa-42" target="hR6rneo7rfwBMAwjGEIa-3">
          <mxGeometry relative="1" as="geometry" />
        </mxCell>
        <mxCell id="hR6rneo7rfwBMAwjGEIa-45" style="edgeStyle=orthogonalEdgeStyle;shape=connector;curved=0;rounded=1;orthogonalLoop=1;jettySize=auto;html=1;entryX=0.251;entryY=0.975;entryDx=0;entryDy=0;entryPerimeter=0;strokeColor=#6c8ebf;strokeWidth=2;align=center;verticalAlign=middle;fontFamily=Helvetica;fontSize=11;fontColor=default;labelBackgroundColor=default;endArrow=classic;exitX=1;exitY=0.5;exitDx=0;exitDy=0;fillColor=#dae8fc;" edge="1" parent="-Q0pyj6XjPdck_S_sfpb-1" source="hR6rneo7rfwBMAwjGEIa-42" target="hR6rneo7rfwBMAwjGEIa-3">
          <mxGeometry relative="1" as="geometry" />
        </mxCell>
        <mxCell id="hR6rneo7rfwBMAwjGEIa-46" style="edgeStyle=orthogonalEdgeStyle;shape=connector;curved=0;rounded=1;orthogonalLoop=1;jettySize=auto;html=1;entryX=0.35;entryY=1;entryDx=0;entryDy=0;entryPerimeter=0;strokeColor=#6c8ebf;strokeWidth=2;align=center;verticalAlign=middle;fontFamily=Helvetica;fontSize=11;fontColor=default;labelBackgroundColor=default;endArrow=classic;exitX=1;exitY=0.5;exitDx=0;exitDy=0;fillColor=#dae8fc;" edge="1" parent="-Q0pyj6XjPdck_S_sfpb-1" source="hR6rneo7rfwBMAwjGEIa-42" target="hR6rneo7rfwBMAwjGEIa-3">
          <mxGeometry relative="1" as="geometry" />
        </mxCell>
        <mxCell id="hR6rneo7rfwBMAwjGEIa-47" style="edgeStyle=orthogonalEdgeStyle;shape=connector;curved=0;rounded=1;orthogonalLoop=1;jettySize=auto;html=1;entryX=0.549;entryY=1.025;entryDx=0;entryDy=0;entryPerimeter=0;strokeColor=#6c8ebf;strokeWidth=2;align=center;verticalAlign=middle;fontFamily=Helvetica;fontSize=11;fontColor=default;labelBackgroundColor=default;endArrow=classic;exitX=1;exitY=0.5;exitDx=0;exitDy=0;fillColor=#dae8fc;" edge="1" parent="-Q0pyj6XjPdck_S_sfpb-1" source="hR6rneo7rfwBMAwjGEIa-42" target="hR6rneo7rfwBMAwjGEIa-3">
          <mxGeometry relative="1" as="geometry" />
        </mxCell>
        <mxCell id="hR6rneo7rfwBMAwjGEIa-48" style="edgeStyle=orthogonalEdgeStyle;shape=connector;curved=0;rounded=1;orthogonalLoop=1;jettySize=auto;html=1;entryX=0.749;entryY=1.025;entryDx=0;entryDy=0;entryPerimeter=0;strokeColor=#6c8ebf;strokeWidth=2;align=center;verticalAlign=middle;fontFamily=Helvetica;fontSize=11;fontColor=default;labelBackgroundColor=default;endArrow=classic;exitX=1;exitY=0.5;exitDx=0;exitDy=0;fillColor=#dae8fc;" edge="1" parent="-Q0pyj6XjPdck_S_sfpb-1" source="hR6rneo7rfwBMAwjGEIa-42" target="hR6rneo7rfwBMAwjGEIa-3">
          <mxGeometry relative="1" as="geometry" />
        </mxCell>
        <mxCell id="hR6rneo7rfwBMAwjGEIa-52" style="edgeStyle=orthogonalEdgeStyle;shape=connector;curved=0;rounded=1;orthogonalLoop=1;jettySize=auto;html=1;exitX=1;exitY=0.5;exitDx=0;exitDy=0;entryX=0.453;entryY=1;entryDx=0;entryDy=0;entryPerimeter=0;strokeColor=#d79b00;strokeWidth=2;align=center;verticalAlign=middle;fontFamily=Helvetica;fontSize=11;fontColor=default;labelBackgroundColor=default;endArrow=classic;fillColor=#ffe6cc;" edge="1" parent="-Q0pyj6XjPdck_S_sfpb-1" source="hR6rneo7rfwBMAwjGEIa-41" target="hR6rneo7rfwBMAwjGEIa-3">
          <mxGeometry relative="1" as="geometry" />
        </mxCell>
        <mxCell id="hR6rneo7rfwBMAwjGEIa-53" style="edgeStyle=orthogonalEdgeStyle;shape=connector;curved=0;rounded=1;orthogonalLoop=1;jettySize=auto;html=1;exitX=1;exitY=0.5;exitDx=0;exitDy=0;entryX=0.646;entryY=1.025;entryDx=0;entryDy=0;entryPerimeter=0;strokeColor=#d79b00;strokeWidth=2;align=center;verticalAlign=middle;fontFamily=Helvetica;fontSize=11;fontColor=default;labelBackgroundColor=default;endArrow=classic;fillColor=#ffe6cc;" edge="1" parent="-Q0pyj6XjPdck_S_sfpb-1" source="hR6rneo7rfwBMAwjGEIa-41" target="hR6rneo7rfwBMAwjGEIa-3">
          <mxGeometry relative="1" as="geometry" />
        </mxCell>
        <mxCell id="hR6rneo7rfwBMAwjGEIa-54" style="edgeStyle=orthogonalEdgeStyle;shape=connector;curved=0;rounded=1;orthogonalLoop=1;jettySize=auto;html=1;exitX=1;exitY=0.5;exitDx=0;exitDy=0;entryX=0.848;entryY=1.025;entryDx=0;entryDy=0;entryPerimeter=0;strokeColor=#d79b00;strokeWidth=2;align=center;verticalAlign=middle;fontFamily=Helvetica;fontSize=11;fontColor=default;labelBackgroundColor=default;endArrow=classic;fillColor=#ffe6cc;" edge="1" parent="-Q0pyj6XjPdck_S_sfpb-1" source="hR6rneo7rfwBMAwjGEIa-41" target="hR6rneo7rfwBMAwjGEIa-3">
          <mxGeometry relative="1" as="geometry" />
        </mxCell>
        <mxCell id="hR6rneo7rfwBMAwjGEIa-56" style="edgeStyle=orthogonalEdgeStyle;shape=connector;curved=0;rounded=1;orthogonalLoop=1;jettySize=auto;html=1;exitX=1;exitY=0.5;exitDx=0;exitDy=0;entryX=0.951;entryY=1;entryDx=0;entryDy=0;entryPerimeter=0;strokeColor=#82b366;strokeWidth=2;align=center;verticalAlign=middle;fontFamily=Helvetica;fontSize=11;fontColor=default;labelBackgroundColor=default;endArrow=classic;fillColor=#d5e8d4;" edge="1" parent="-Q0pyj6XjPdck_S_sfpb-1" source="hR6rneo7rfwBMAwjGEIa-39" target="hR6rneo7rfwBMAwjGEIa-3">
          <mxGeometry relative="1" as="geometry" />
        </mxCell>
        <mxCell id="hR6rneo7rfwBMAwjGEIa-58" style="edgeStyle=orthogonalEdgeStyle;shape=connector;curved=0;rounded=1;orthogonalLoop=1;jettySize=auto;html=1;exitX=1;exitY=0.5;exitDx=0;exitDy=0;entryX=0.453;entryY=1;entryDx=0;entryDy=0;entryPerimeter=0;strokeColor=#d79b00;strokeWidth=2;align=center;verticalAlign=middle;fontFamily=Helvetica;fontSize=11;fontColor=default;labelBackgroundColor=default;endArrow=classic;fillColor=#ffe6cc;" edge="1" parent="-Q0pyj6XjPdck_S_sfpb-1" source="hR6rneo7rfwBMAwjGEIa-40" target="hR6rneo7rfwBMAwjGEIa-3">
          <mxGeometry relative="1" as="geometry" />
        </mxCell>
        <mxCell id="hR6rneo7rfwBMAwjGEIa-59" style="edgeStyle=orthogonalEdgeStyle;shape=connector;curved=0;rounded=1;orthogonalLoop=1;jettySize=auto;html=1;exitX=1;exitY=0.5;exitDx=0;exitDy=0;entryX=0.646;entryY=1;entryDx=0;entryDy=0;entryPerimeter=0;strokeColor=#d79b00;strokeWidth=2;align=center;verticalAlign=middle;fontFamily=Helvetica;fontSize=11;fontColor=default;labelBackgroundColor=default;endArrow=classic;fillColor=#ffe6cc;" edge="1" parent="-Q0pyj6XjPdck_S_sfpb-1" source="hR6rneo7rfwBMAwjGEIa-40" target="hR6rneo7rfwBMAwjGEIa-3">
          <mxGeometry relative="1" as="geometry" />
        </mxCell>
        <mxCell id="hR6rneo7rfwBMAwjGEIa-60" style="edgeStyle=orthogonalEdgeStyle;shape=connector;curved=0;rounded=1;orthogonalLoop=1;jettySize=auto;html=1;exitX=1;exitY=0.5;exitDx=0;exitDy=0;entryX=0.848;entryY=1;entryDx=0;entryDy=0;entryPerimeter=0;strokeColor=#d79b00;strokeWidth=2;align=center;verticalAlign=middle;fontFamily=Helvetica;fontSize=11;fontColor=default;labelBackgroundColor=default;endArrow=classic;fillColor=#ffe6cc;" edge="1" parent="-Q0pyj6XjPdck_S_sfpb-1" source="hR6rneo7rfwBMAwjGEIa-40" target="hR6rneo7rfwBMAwjGEIa-3">
          <mxGeometry relative="1" as="geometry" />
        </mxCell>
        <mxCell id="hR6rneo7rfwBMAwjGEIa-62" value="&lt;span style=&quot;font-size: 12px; text-align: left;&quot;&gt;ma_timer_callback&lt;/span&gt;" style="rounded=1;whiteSpace=wrap;html=1;fontFamily=Courier New;fontSize=12;labelBackgroundColor=none;fillColor=#f8cecc;strokeColor=#b85450;" vertex="1" parent="-Q0pyj6XjPdck_S_sfpb-1">
          <mxGeometry x="985" y="1899" width="150" height="60" as="geometry" />
        </mxCell>
        <mxCell id="hR6rneo7rfwBMAwjGEIa-64" value="&lt;h1 style=&quot;margin-top: 0px;&quot;&gt;Shared Resources&lt;/h1&gt;" style="text;html=1;whiteSpace=wrap;overflow=hidden;rounded=0;" vertex="1" parent="-Q0pyj6XjPdck_S_sfpb-1">
          <mxGeometry x="19" y="1682" width="285" height="67" as="geometry" />
        </mxCell>
      </root>
    </mxGraphModel>
  </diagram>
  <diagram id="0eQMzaTfM0PJ9lUMm8JW" name="MA Communication">
    <mxGraphModel dx="2440" dy="-615" grid="0" gridSize="10" guides="1" tooltips="1" connect="1" arrows="1" fold="1" page="1" pageScale="1" pageWidth="1169" pageHeight="827" math="0" shadow="0">
      <root>
        <mxCell id="0" />
        <mxCell id="1" parent="0" />
        <mxCell id="7O9_jxfyfgNFEkx2OZuv-4" style="edgeStyle=orthogonalEdgeStyle;shape=connector;curved=0;rounded=1;orthogonalLoop=1;jettySize=auto;html=1;entryX=0;entryY=0.5;entryDx=0;entryDy=0;strokeColor=default;strokeWidth=2;align=center;verticalAlign=middle;fontFamily=Helvetica;fontSize=11;fontColor=default;labelBackgroundColor=default;endArrow=classic;" parent="1" source="AQ5vZi85hX9xfFBr0yus-19" target="7O9_jxfyfgNFEkx2OZuv-1" edge="1">
          <mxGeometry relative="1" as="geometry">
            <Array as="points">
              <mxPoint x="359" y="1965" />
              <mxPoint x="359" y="1912" />
            </Array>
          </mxGeometry>
        </mxCell>
        <mxCell id="AQ5vZi85hX9xfFBr0yus-19" value="&lt;span style=&quot;font-family: &amp;quot;Courier New&amp;quot;; font-size: 12px; text-align: left;&quot;&gt;gear_cmd_callback&lt;/span&gt;" style="rounded=1;whiteSpace=wrap;html=1;fontFamily=Helvetica;fontSize=11;labelBackgroundColor=none;fillColor=#dae8fc;strokeColor=#6c8ebf;" parent="1" vertex="1">
          <mxGeometry x="91" y="1934" width="215" height="60" as="geometry" />
        </mxCell>
        <mxCell id="7O9_jxfyfgNFEkx2OZuv-5" style="edgeStyle=orthogonalEdgeStyle;shape=connector;curved=0;rounded=1;orthogonalLoop=1;jettySize=auto;html=1;entryX=0;entryY=0.5;entryDx=0;entryDy=0;strokeColor=default;strokeWidth=2;align=center;verticalAlign=middle;fontFamily=Helvetica;fontSize=11;fontColor=default;labelBackgroundColor=default;endArrow=classic;" parent="1" source="AQ5vZi85hX9xfFBr0yus-20" target="7O9_jxfyfgNFEkx2OZuv-1" edge="1">
          <mxGeometry relative="1" as="geometry">
            <Array as="points">
              <mxPoint x="359" y="2049" />
              <mxPoint x="359" y="1912" />
            </Array>
          </mxGeometry>
        </mxCell>
        <mxCell id="AQ5vZi85hX9xfFBr0yus-20" value="&lt;span style=&quot;font-family: &amp;quot;Courier New&amp;quot;; font-size: 12px; text-align: left;&quot;&gt;engage_callback&lt;/span&gt;" style="rounded=1;whiteSpace=wrap;html=1;fontFamily=Helvetica;fontSize=11;labelBackgroundColor=none;fillColor=#dae8fc;strokeColor=#6c8ebf;" parent="1" vertex="1">
          <mxGeometry x="91" y="2018" width="215" height="60" as="geometry" />
        </mxCell>
        <mxCell id="AQ5vZi85hX9xfFBr0yus-21" value="&lt;span style=&quot;font-family: &amp;quot;Courier New&amp;quot;; font-size: 12px; text-align: left;&quot;&gt;control_mode_request_callback&lt;/span&gt;" style="rounded=1;whiteSpace=wrap;html=1;fontFamily=Helvetica;fontSize=11;labelBackgroundColor=none;fillColor=#dae8fc;strokeColor=#6c8ebf;" parent="1" vertex="1">
          <mxGeometry x="91" y="1846" width="215" height="60" as="geometry" />
        </mxCell>
        <mxCell id="7O9_jxfyfgNFEkx2OZuv-2" style="edgeStyle=orthogonalEdgeStyle;shape=connector;curved=0;rounded=1;orthogonalLoop=1;jettySize=auto;html=1;entryX=0;entryY=0.5;entryDx=0;entryDy=0;strokeColor=default;strokeWidth=2;align=center;verticalAlign=middle;fontFamily=Helvetica;fontSize=11;fontColor=default;labelBackgroundColor=default;endArrow=classic;" parent="1" source="AQ5vZi85hX9xfFBr0yus-22" target="7O9_jxfyfgNFEkx2OZuv-1" edge="1">
          <mxGeometry relative="1" as="geometry">
            <Array as="points">
              <mxPoint x="359" y="1797" />
              <mxPoint x="359" y="1912" />
            </Array>
          </mxGeometry>
        </mxCell>
        <mxCell id="AQ5vZi85hX9xfFBr0yus-22" value="&lt;span style=&quot;font-family: &amp;quot;Courier New&amp;quot;; font-size: 12px; text-align: left;&quot;&gt;control_cmd_callback&lt;/span&gt;" style="rounded=1;whiteSpace=wrap;html=1;fontFamily=Helvetica;fontSize=11;labelBackgroundColor=none;fillColor=#dae8fc;strokeColor=#6c8ebf;" parent="1" vertex="1">
          <mxGeometry x="91" y="1766" width="215" height="60" as="geometry" />
        </mxCell>
        <mxCell id="AQ5vZi85hX9xfFBr0yus-35" value="&lt;span style=&quot;font-size: 12px; text-align: left;&quot;&gt;ma_timer_callback&lt;/span&gt;" style="rounded=1;whiteSpace=wrap;html=1;fontFamily=Courier New;fontSize=12;labelBackgroundColor=none;fillColor=#f8cecc;strokeColor=#b85450;spacingTop=-30;" parent="1" vertex="1">
          <mxGeometry x="928" y="1869.5" width="150" height="85" as="geometry" />
        </mxCell>
        <mxCell id="7O9_jxfyfgNFEkx2OZuv-7" style="edgeStyle=orthogonalEdgeStyle;shape=connector;curved=0;rounded=1;orthogonalLoop=1;jettySize=auto;html=1;entryX=0;entryY=0.5;entryDx=0;entryDy=0;strokeColor=default;strokeWidth=2;align=center;verticalAlign=middle;fontFamily=Helvetica;fontSize=11;fontColor=default;labelBackgroundColor=default;endArrow=classic;" parent="1" source="7O9_jxfyfgNFEkx2OZuv-1" target="AQ5vZi85hX9xfFBr0yus-35" edge="1">
          <mxGeometry relative="1" as="geometry" />
        </mxCell>
        <mxCell id="dMd0JNoO1LG8Wlw_Bwk1-6" value="&lt;b style=&quot;color: rgb(150, 115, 166); text-wrap: wrap; font-size: 12px;&quot;&gt;&lt;font face=&quot;Courier New&quot;&gt;joystick_command_mutex_&lt;/font&gt;&lt;/b&gt;" style="edgeLabel;html=1;align=center;verticalAlign=middle;resizable=0;points=[];fontFamily=Helvetica;fontSize=11;fontColor=default;labelBackgroundColor=none;" parent="7O9_jxfyfgNFEkx2OZuv-7" vertex="1" connectable="0">
          <mxGeometry x="0.0357" y="-5" relative="1" as="geometry">
            <mxPoint x="-4" y="-18" as="offset" />
          </mxGeometry>
        </mxCell>
        <mxCell id="7O9_jxfyfgNFEkx2OZuv-1" value="&lt;b style=&quot;font-size: 12px;&quot;&gt;&lt;font face=&quot;Courier New&quot;&gt;joystick_command_&lt;/font&gt;&lt;/b&gt;" style="rounded=1;whiteSpace=wrap;html=1;fontFamily=Helvetica;fontSize=11;labelBackgroundColor=none;fillColor=#e1d5e7;strokeColor=#9673a6;" parent="1" vertex="1">
          <mxGeometry x="579" y="1882" width="140" height="60" as="geometry" />
        </mxCell>
        <mxCell id="7O9_jxfyfgNFEkx2OZuv-6" style="edgeStyle=orthogonalEdgeStyle;shape=connector;curved=0;rounded=1;orthogonalLoop=1;jettySize=auto;html=1;entryX=0;entryY=0.5;entryDx=0;entryDy=0;strokeColor=default;strokeWidth=2;align=center;verticalAlign=middle;fontFamily=Helvetica;fontSize=11;fontColor=default;labelBackgroundColor=default;endArrow=classic;" parent="1" source="AQ5vZi85hX9xfFBr0yus-21" target="7O9_jxfyfgNFEkx2OZuv-1" edge="1">
          <mxGeometry relative="1" as="geometry">
            <Array as="points">
              <mxPoint x="359" y="1877" />
              <mxPoint x="359" y="1912" />
            </Array>
          </mxGeometry>
        </mxCell>
        <mxCell id="dMd0JNoO1LG8Wlw_Bwk1-4" value="&lt;b style=&quot;forced-color-adjust: none; font-family: Helvetica; font-style: normal; font-variant-ligatures: normal; font-variant-caps: normal; letter-spacing: normal; orphans: 2; text-align: center; text-indent: 0px; text-transform: none; widows: 2; word-spacing: 0px; -webkit-text-stroke-width: 0px; white-space: normal; text-decoration-thickness: initial; text-decoration-style: initial; text-decoration-color: initial; font-size: 12px;&quot;&gt;&lt;font style=&quot;forced-color-adjust: none;&quot; face=&quot;Courier New&quot;&gt;joystick_command_mutex_&lt;/font&gt;&lt;/b&gt;" style="edgeLabel;html=1;align=center;verticalAlign=middle;resizable=0;points=[];fontFamily=Helvetica;fontSize=11;fontColor=#9673A6;labelBackgroundColor=none;" parent="7O9_jxfyfgNFEkx2OZuv-6" vertex="1" connectable="0">
          <mxGeometry x="0.4244" y="3" relative="1" as="geometry">
            <mxPoint x="-22" y="-10" as="offset" />
          </mxGeometry>
        </mxCell>
        <mxCell id="7O9_jxfyfgNFEkx2OZuv-8" value="&lt;span style=&quot;font-size: 12px; text-align: left;&quot;&gt;to_ma&lt;/span&gt;" style="rounded=1;whiteSpace=wrap;html=1;fontFamily=Courier New;fontSize=12;labelBackgroundColor=none;fillColor=#fff2cc;strokeColor=#d6b656;" parent="1" vertex="1">
          <mxGeometry x="975.25" y="1920" width="55.5" height="26" as="geometry" />
        </mxCell>
        <mxCell id="7O9_jxfyfgNFEkx2OZuv-14" style="edgeStyle=orthogonalEdgeStyle;shape=connector;curved=0;rounded=1;orthogonalLoop=1;jettySize=auto;html=1;entryX=0.5;entryY=0;entryDx=0;entryDy=0;strokeColor=default;strokeWidth=2;align=center;verticalAlign=middle;fontFamily=Helvetica;fontSize=11;fontColor=default;labelBackgroundColor=default;endArrow=classic;" parent="1" source="7O9_jxfyfgNFEkx2OZuv-11" target="7O9_jxfyfgNFEkx2OZuv-13" edge="1">
          <mxGeometry relative="1" as="geometry" />
        </mxCell>
        <mxCell id="7O9_jxfyfgNFEkx2OZuv-11" value="MicroAutobox" style="shape=cylinder3;whiteSpace=wrap;html=1;boundedLbl=1;backgroundOutline=1;size=13.058823529412166;fontFamily=Helvetica;fontSize=11;labelBackgroundColor=none;fillColor=#ffe6cc;strokeColor=#d79b00;fontStyle=1" parent="1" vertex="1">
          <mxGeometry x="950.5" y="2064" width="105" height="80" as="geometry" />
        </mxCell>
        <mxCell id="7O9_jxfyfgNFEkx2OZuv-13" value="&lt;span style=&quot;font-size: 12px; text-align: left;&quot;&gt;from_ma&lt;/span&gt;" style="rounded=1;whiteSpace=wrap;html=1;fontFamily=Courier New;fontSize=12;labelBackgroundColor=none;fillColor=#fff2cc;strokeColor=#d6b656;" parent="1" vertex="1">
          <mxGeometry x="928" y="2262" width="150" height="60" as="geometry" />
        </mxCell>
        <mxCell id="_qtWbMr61EfihGqBHXuI-1" style="edgeStyle=orthogonalEdgeStyle;rounded=1;orthogonalLoop=1;jettySize=auto;html=1;entryX=1;entryY=0.25;entryDx=0;entryDy=0;strokeWidth=2;fontColor=#666666;strokeColor=#000000;fontSize=12;curved=0;exitX=0;exitY=0.5;exitDx=0;exitDy=0;" parent="1" source="7O9_jxfyfgNFEkx2OZuv-13" edge="1">
          <mxGeometry relative="1" as="geometry">
            <mxPoint x="863" y="2352" as="sourcePoint" />
            <mxPoint x="573" y="2352" as="targetPoint" />
            <Array as="points">
              <mxPoint x="898" y="2292" />
              <mxPoint x="898" y="2352" />
            </Array>
          </mxGeometry>
        </mxCell>
        <mxCell id="_qtWbMr61EfihGqBHXuI-2" style="edgeStyle=orthogonalEdgeStyle;rounded=1;orthogonalLoop=1;jettySize=auto;html=1;entryX=1;entryY=0.25;entryDx=0;entryDy=0;strokeWidth=2;fontSize=12;curved=0;exitX=0;exitY=0.5;exitDx=0;exitDy=0;" parent="1" source="7O9_jxfyfgNFEkx2OZuv-13" edge="1">
          <mxGeometry relative="1" as="geometry">
            <mxPoint x="863" y="2272" as="sourcePoint" />
            <mxPoint x="573" y="2272" as="targetPoint" />
            <Array as="points">
              <mxPoint x="898" y="2292" />
              <mxPoint x="898" y="2272" />
            </Array>
          </mxGeometry>
        </mxCell>
        <mxCell id="_qtWbMr61EfihGqBHXuI-3" style="edgeStyle=orthogonalEdgeStyle;rounded=1;orthogonalLoop=1;jettySize=auto;html=1;entryX=1;entryY=0.25;entryDx=0;entryDy=0;strokeWidth=2;fontSize=12;curved=0;exitX=0;exitY=0.5;exitDx=0;exitDy=0;" parent="1" source="7O9_jxfyfgNFEkx2OZuv-13" edge="1">
          <mxGeometry relative="1" as="geometry">
            <mxPoint x="863" y="2312" as="sourcePoint" />
            <mxPoint x="573" y="2312" as="targetPoint" />
            <Array as="points">
              <mxPoint x="898" y="2292" />
              <mxPoint x="898" y="2312" />
            </Array>
          </mxGeometry>
        </mxCell>
        <mxCell id="_qtWbMr61EfihGqBHXuI-4" style="edgeStyle=orthogonalEdgeStyle;rounded=1;orthogonalLoop=1;jettySize=auto;html=1;entryX=1;entryY=0.25;entryDx=0;entryDy=0;strokeWidth=2;fontSize=12;curved=0;exitX=0;exitY=0.5;exitDx=0;exitDy=0;" parent="1" source="7O9_jxfyfgNFEkx2OZuv-13" edge="1">
          <mxGeometry relative="1" as="geometry">
            <mxPoint x="863" y="2232" as="sourcePoint" />
            <mxPoint x="573" y="2231.6" as="targetPoint" />
            <Array as="points">
              <mxPoint x="898" y="2292" />
              <mxPoint x="898" y="2232" />
            </Array>
          </mxGeometry>
        </mxCell>
        <mxCell id="_qtWbMr61EfihGqBHXuI-5" value="&lt;div style=&quot;text-align: left;&quot;&gt;&lt;span style=&quot;background-color: initial; text-wrap: wrap;&quot;&gt;&lt;font face=&quot;Roboto, -apple-system, BlinkMacSystemFont, Helvetica, Arial, sans-serif&quot;&gt;/vehicle/status/control_mode&lt;/font&gt;&lt;/span&gt;&lt;/div&gt;" style="edgeLabel;html=1;align=center;verticalAlign=middle;resizable=0;points=[];labelBackgroundColor=none;fontStyle=3;fontSize=12;" parent="1" vertex="1" connectable="0">
          <mxGeometry x="733.0013793103453" y="2222" as="geometry" />
        </mxCell>
        <mxCell id="_qtWbMr61EfihGqBHXuI-6" value="&lt;div style=&quot;text-align: left;&quot;&gt;&lt;span style=&quot;background-color: initial; text-wrap: wrap;&quot;&gt;&lt;font face=&quot;Roboto, -apple-system, BlinkMacSystemFont, Helvetica, Arial, sans-serif&quot;&gt;/vehicle/status/gear_status&lt;/font&gt;&lt;/span&gt;&lt;/div&gt;" style="edgeLabel;html=1;align=center;verticalAlign=middle;resizable=0;points=[];labelBackgroundColor=none;fontStyle=3;fontSize=12;fontColor=#000000;" parent="1" vertex="1" connectable="0">
          <mxGeometry x="733.0013793103453" y="2342" as="geometry" />
        </mxCell>
        <mxCell id="_qtWbMr61EfihGqBHXuI-7" value="&lt;div style=&quot;text-align: left;&quot;&gt;&lt;span style=&quot;background-color: initial; text-wrap: wrap;&quot;&gt;&lt;font face=&quot;Roboto, -apple-system, BlinkMacSystemFont, Helvetica, Arial, sans-serif&quot;&gt;/vehicle/status/steering_status&lt;/font&gt;&lt;/span&gt;&lt;/div&gt;" style="edgeLabel;html=1;align=center;verticalAlign=middle;resizable=0;points=[];labelBackgroundColor=none;fontStyle=3;fontSize=12;" parent="1" vertex="1" connectable="0">
          <mxGeometry x="733.0013793103453" y="2262" as="geometry" />
        </mxCell>
        <mxCell id="_qtWbMr61EfihGqBHXuI-8" value="&lt;div style=&quot;text-align: left;&quot;&gt;&lt;span style=&quot;background-color: initial; text-wrap: wrap;&quot;&gt;&lt;font face=&quot;Roboto, -apple-system, BlinkMacSystemFont, Helvetica, Arial, sans-serif&quot;&gt;/vehicle/status/velocity_status&lt;/font&gt;&lt;/span&gt;&lt;/div&gt;" style="edgeLabel;html=1;align=center;verticalAlign=middle;resizable=0;points=[];labelBackgroundColor=none;fontStyle=3;fontSize=12;" parent="1" vertex="1" connectable="0">
          <mxGeometry x="733.0013793103453" y="2302" as="geometry" />
        </mxCell>
        <mxCell id="dMd0JNoO1LG8Wlw_Bwk1-1" value="To Autoware" style="text;html=1;align=center;verticalAlign=middle;whiteSpace=wrap;rounded=0;fontStyle=1;fontColor=#999999;strokeColor=none;" parent="1" vertex="1">
          <mxGeometry x="473" y="2277" width="60" height="30" as="geometry" />
        </mxCell>
        <mxCell id="dMd0JNoO1LG8Wlw_Bwk1-2" value="" style="labelPosition=right;align=left;strokeWidth=2;shape=mxgraph.mockup.markup.curlyBrace;html=1;shadow=0;dashed=0;strokeColor=#999999;direction=north;fontColor=#999999;" parent="1" vertex="1">
          <mxGeometry x="543" y="2215.54" width="20" height="152.92" as="geometry" />
        </mxCell>
        <mxCell id="dMd0JNoO1LG8Wlw_Bwk1-3" value="&lt;h1 style=&quot;margin-top: 0px;&quot;&gt;MicroAutobox communication&lt;/h1&gt;" style="text;html=1;whiteSpace=wrap;overflow=hidden;rounded=0;fontFamily=Helvetica;fontSize=11;fontColor=default;labelBackgroundColor=none;" parent="1" vertex="1">
          <mxGeometry x="20" y="1670" width="410" height="50" as="geometry" />
        </mxCell>
        <mxCell id="2uyfdwfS4kJncPFqVl5--4" style="edgeStyle=orthogonalEdgeStyle;shape=connector;curved=0;rounded=1;orthogonalLoop=1;jettySize=auto;html=1;entryX=0.5;entryY=0;entryDx=0;entryDy=0;entryPerimeter=0;strokeColor=default;strokeWidth=2;align=center;verticalAlign=middle;fontFamily=Helvetica;fontSize=11;fontColor=default;labelBackgroundColor=default;endArrow=classic;" edge="1" parent="1" source="AQ5vZi85hX9xfFBr0yus-35" target="7O9_jxfyfgNFEkx2OZuv-11">
          <mxGeometry relative="1" as="geometry" />
        </mxCell>
      </root>
    </mxGraphModel>
  </diagram>
</mxfile>
